<?xml version="1.0" encoding="UTF-8" standalone="no"?>
<!-- Created with Inkscape (http://www.inkscape.org/) -->
<svg
   xmlns:svg="http://www.w3.org/2000/svg"
   xmlns="http://www.w3.org/2000/svg"
   version="1.0"
   width="800"
   height="520"
   id="svg2159">
  <defs
     id="defs2162" />
  <path
     d="M 184.5,346.5 L 184.5,330.5 L 200.5,330.5 L 200.5,346.5 L 216.5,346.5 L 216.5,362.5 L 200.5,362.5 L 200.5,378.5 L 216.5,378.5 L 216.5,394.5 L 200.5,394.5 L 200.5,378.5 L 184.5,378.5 L 184.5,394.5 L 168.5,394.5 L 168.5,410.5 L 184.5,410.5 L 184.5,426.5 L 168.5,426.5 L 168.5,410.5 L 152.5,410.5 L 152.5,394.5 L 168.5,394.5 L 168.5,378.5 L 152.5,378.5 L 152.5,394.5 L 136.5,394.5 L 136.5,378.5 L 120.5,378.5 L 120.5,394.5 L 104.5,394.5 L 104.5,410.5 L 120.5,410.5 L 120.5,426.5 L 104.5,426.5 L 104.5,410.5 L 88.5,410.5 L 88.5,394.5 L 104.5,394.5 L 104.5,378.5 L 88.5,378.5 L 88.5,362.5 L 104.5,362.5 L 104.5,378.5 L 120.5,378.5 L 120.5,362.5 L 136.5,362.5 L 136.5,346.5 L 120.5,346.5 L 120.5,362.5 L 104.5,362.5 L 104.5,346.5 L 88.5,346.5 L 88.5,330.5 L 104.5,330.5 L 104.5,314.5 L 88.5,314.5 L 88.5,330.5 L 72.5,330.5 L 72.5,314.5 L 56.5,314.5 L 56.5,330.5 L 40.5,330.5 L 40.5,346.5 L 56.5,346.5 L 56.5,362.5 L 40.5,362.5 L 40.5,346.5 L 24.5,346.5 L 24.5,330.5 L 40.5,330.5 L 40.5,314.5 L 24.5,314.5 L 24.5,298.5 L 40.5,298.5 L 40.5,314.5 L 56.5,314.5 L 56.5,298.5 L 72.5,298.5 L 72.5,282.5 L 56.5,282.5 L 56.5,266.5 L 72.5,266.5 L 72.5,282.5 L 88.5,282.5 L 88.5,298.5 L 72.5,298.5 L 72.5,314.5 L 88.5,314.5 L 88.5,298.5 L 104.5,298.5 L 104.5,314.5 L 120.5,314.5 L 120.5,298.5 L 136.5,298.5 L 136.5,282.5 L 120.5,282.5 L 120.5,298.5 L 104.5,298.5 L 104.5,282.5 L 88.5,282.5 L 88.5,266.5 L 104.5,266.5 L 104.5,250.5 L 88.5,250.5 L 88.5,234.5 L 104.5,234.5 L 104.5,250.5 L 120.5,250.5 L 120.5,234.5 L 136.5,234.5 L 136.5,218.5 L 120.5,218.5 L 120.5,234.5 L 104.5,234.5 L 104.5,218.5 L 88.5,218.5 L 88.5,202.5 L 104.5,202.5 L 104.5,186.5 L 88.5,186.5 L 88.5,202.5 L 72.5,202.5 L 72.5,186.5 L 56.5,186.5 L 56.5,202.5 L 40.5,202.5 L 40.5,218.5 L 56.5,218.5 L 56.5,234.5 L 40.5,234.5 L 40.5,218.5 L 24.5,218.5 L 24.5,202.5 L 40.5,202.5 L 40.5,186.5 L 24.5,186.5 L 24.5,170.5 L 40.5,170.5 L 40.5,186.5 L 56.5,186.5 L 56.5,170.5 L 72.5,170.5 L 72.5,154.5 L 56.5,154.5 L 56.5,138.5 L 72.5,138.5 L 72.5,154.5 L 88.5,154.5 L 88.5,170.5 L 72.5,170.5 L 72.5,186.5 L 88.5,186.5 L 88.5,170.5 L 104.5,170.5 L 104.5,186.5 L 120.5,186.5 L 120.5,170.5 L 136.5,170.5 L 136.5,154.5 L 120.5,154.5 L 120.5,138.5 L 136.5,138.5 L 136.5,154.5 L 152.5,154.5 L 152.5,170.5 L 136.5,170.5 L 136.5,186.5 L 152.5,186.5 L 152.5,202.5 L 136.5,202.5 L 136.5,186.5 L 120.5,186.5 L 120.5,202.5 L 104.5,202.5 L 104.5,218.5 L 120.5,218.5 L 120.5,202.5 L 136.5,202.5 L 136.5,218.5 L 152.5,218.5 L 152.5,234.5 L 136.5,234.5 L 136.5,250.5 L 152.5,250.5 L 152.5,234.5 L 168.5,234.5 L 168.5,250.5 L 184.5,250.5 L 184.5,234.5 L 200.5,234.5 L 200.5,218.5 L 184.5,218.5 L 184.5,234.5 L 168.5,234.5 L 168.5,218.5 L 152.5,218.5 L 152.5,202.5 L 168.5,202.5 L 168.5,186.5 L 152.5,186.5 L 152.5,170.5 L 168.5,170.5 L 168.5,186.5 L 184.5,186.5 L 184.5,170.5 L 200.5,170.5 L 200.5,154.5 L 184.5,154.5 L 184.5,138.5 L 200.5,138.5 L 200.5,154.5 L 216.5,154.5 L 216.5,170.5 L 200.5,170.5 L 200.5,186.5 L 216.5,186.5 L 216.5,170.5 L 232.5,170.5 L 232.5,186.5 L 248.5,186.5 L 248.5,170.5 L 264.5,170.5 L 264.5,154.5 L 248.5,154.5 L 248.5,170.5 L 232.5,170.5 L 232.5,154.5 L 216.5,154.5 L 216.5,138.5 L 232.5,138.5 L 232.5,122.5 L 216.5,122.5 L 216.5,106.5 L 232.5,106.5 L 232.5,122.5 L 248.5,122.5 L 248.5,106.5 L 264.5,106.5 L 264.5,90.5 L 248.5,90.5 L 248.5,106.5 L 232.5,106.5 L 232.5,90.5 L 216.5,90.5 L 216.5,74.5 L 232.5,74.5 L 232.5,58.5 L 216.5,58.5 L 216.5,74.5 L 200.5,74.5 L 200.5,58.5 L 184.5,58.5 L 184.5,74.5 L 168.5,74.5 L 168.5,90.5 L 184.5,90.5 L 184.5,106.5 L 168.5,106.5 L 168.5,90.5 L 152.5,90.5 L 152.5,74.5 L 168.5,74.5 L 168.5,58.5 L 152.5,58.5 L 152.5,42.5 L 168.5,42.5 L 168.5,58.5 L 184.5,58.5 L 184.5,42.5 L 200.5,42.5 L 200.5,26.5 L 184.5,26.5 L 184.5,10.5 L 200.5,10.5 L 200.5,26.5 L 216.5,26.5 L 216.5,42.5 L 200.5,42.5 L 200.5,58.5 L 216.5,58.5 L 216.5,42.5 L 232.5,42.5 L 232.5,58.5 L 248.5,58.5 L 248.5,42.5 L 264.5,42.5 L 264.5,26.5 L 248.5,26.5 L 248.5,10.5 L 264.5,10.5 L 264.5,26.5 L 280.5,26.5 L 280.5,42.5 L 264.5,42.5 L 264.5,58.5 L 280.5,58.5 L 280.5,74.5 L 264.5,74.5 L 264.5,58.5 L 248.5,58.5 L 248.5,74.5 L 232.5,74.5 L 232.5,90.5 L 248.5,90.5 L 248.5,74.5 L 264.5,74.5 L 264.5,90.5 L 280.5,90.5 L 280.5,106.5 L 264.5,106.5 L 264.5,122.5 L 280.5,122.5 L 280.5,106.5 L 296.5,106.5 L 296.5,122.5 L 312.5,122.5 L 312.5,106.5 L 328.5,106.5 L 328.5,90.5 L 312.5,90.5 L 312.5,74.5 L 328.5,74.5 L 328.5,90.5 L 344.5,90.5 L 344.5,106.5 L 328.5,106.5 L 328.5,122.5 L 344.5,122.5 L 344.5,138.5 L 328.5,138.5 L 328.5,122.5 L 312.5,122.5 L 312.5,138.5 L 296.5,138.5 L 296.5,154.5 L 312.5,154.5 L 312.5,170.5 L 296.5,170.5 L 296.5,154.5 L 280.5,154.5 L 280.5,138.5 L 296.5,138.5 L 296.5,122.5 L 280.5,122.5 L 280.5,138.5 L 264.5,138.5 L 264.5,122.5 L 248.5,122.5 L 248.5,138.5 L 232.5,138.5 L 232.5,154.5 L 248.5,154.5 L 248.5,138.5 L 264.5,138.5 L 264.5,154.5 L 280.5,154.5 L 280.5,170.5 L 264.5,170.5 L 264.5,186.5 L 280.5,186.5 L 280.5,202.5 L 264.5,202.5 L 264.5,186.5 L 248.5,186.5 L 248.5,202.5 L 232.5,202.5 L 232.5,218.5 L 248.5,218.5 L 248.5,202.5 L 264.5,202.5 L 264.5,218.5 L 280.5,218.5 L 280.5,234.5 L 264.5,234.5 L 264.5,250.5 L 280.5,250.5 L 280.5,234.5 L 296.5,234.5 L 296.5,250.5 L 312.5,250.5 L 312.5,234.5 L 328.5,234.5 L 328.5,218.5 L 312.5,218.5 L 312.5,234.5 L 296.5,234.5 L 296.5,218.5 L 280.5,218.5 L 280.5,202.5 L 296.5,202.5 L 296.5,186.5 L 280.5,186.5 L 280.5,170.5 L 296.5,170.5 L 296.5,186.5 L 312.5,186.5 L 312.5,170.5 L 328.5,170.5 L 328.5,154.5 L 312.5,154.5 L 312.5,138.5 L 328.5,138.5 L 328.5,154.5 L 344.5,154.5 L 344.5,170.5 L 328.5,170.5 L 328.5,186.5 L 344.5,186.5 L 344.5,170.5 L 360.5,170.5 L 360.5,186.5 L 376.5,186.5 L 376.5,170.5 L 392.5,170.5 L 392.5,154.5 L 376.5,154.5 L 376.5,138.5 L 392.5,138.5 L 392.5,154.5 L 408.5,154.5 L 408.5,170.5 L 392.5,170.5 L 392.5,186.5 L 408.5,186.5 L 408.5,202.5 L 392.5,202.5 L 392.5,186.5 L 376.5,186.5 L 376.5,202.5 L 360.5,202.5 L 360.5,218.5 L 376.5,218.5 L 376.5,202.5 L 392.5,202.5 L 392.5,218.5 L 408.5,218.5 L 408.5,234.5 L 392.5,234.5 L 392.5,250.5 L 408.5,250.5 L 408.5,234.5 L 424.5,234.5 L 424.5,250.5 L 440.5,250.5 L 440.5,234.5 L 456.5,234.5 L 456.5,218.5 L 440.5,218.5 L 440.5,234.5 L 424.5,234.5 L 424.5,218.5 L 408.5,218.5 L 408.5,202.5 L 424.5,202.5 L 424.5,186.5 L 408.5,186.5 L 408.5,170.5 L 424.5,170.5 L 424.5,186.5 L 440.5,186.5 L 440.5,170.5 L 456.5,170.5 L 456.5,154.5 L 440.5,154.5 L 440.5,138.5 L 456.5,138.5 L 456.5,154.5 L 472.5,154.5 L 472.5,170.5 L 456.5,170.5 L 456.5,186.5 L 472.5,186.5 L 472.5,170.5 L 488.5,170.5 L 488.5,186.5 L 504.5,186.5 L 504.5,170.5 L 520.5,170.5 L 520.5,154.5 L 504.5,154.5 L 504.5,170.5 L 488.5,170.5 L 488.5,154.5 L 472.5,154.5 L 472.5,138.5 L 488.5,138.5 L 488.5,122.5 L 472.5,122.5 L 472.5,106.5 L 488.5,106.5 L 488.5,122.5 L 504.5,122.5 L 504.5,106.5 L 520.5,106.5 L 520.5,90.5 L 504.5,90.5 L 504.5,106.5 L 488.5,106.5 L 488.5,90.5 L 472.5,90.5 L 472.5,74.5 L 488.5,74.5 L 488.5,58.5 L 472.5,58.5 L 472.5,74.5 L 456.5,74.5 L 456.5,58.5 L 440.5,58.5 L 440.5,74.5 L 424.5,74.5 L 424.5,90.5 L 440.5,90.5 L 440.5,106.5 L 424.5,106.5 L 424.5,90.5 L 408.5,90.5 L 408.5,74.5 L 424.5,74.5 L 424.5,58.5 L 408.5,58.5 L 408.5,42.5 L 424.5,42.5 L 424.5,58.5 L 440.5,58.5 L 440.5,42.5 L 456.5,42.5 L 456.5,26.5 L 440.5,26.5 L 440.5,10.5 L 456.5,10.5 L 456.5,26.5 L 472.5,26.5 L 472.5,42.5 L 456.5,42.5 L 456.5,58.5 L 472.5,58.5 L 472.5,42.5 L 488.5,42.5 L 488.5,58.5 L 504.5,58.5 L 504.5,42.5 L 520.5,42.5 L 520.5,26.5 L 504.5,26.5 L 504.5,10.5 L 520.5,10.5 L 520.5,26.5 L 536.5,26.5 L 536.5,42.5 L 520.5,42.5 L 520.5,58.5 L 536.5,58.5 L 536.5,74.5 L 520.5,74.5 L 520.5,58.5 L 504.5,58.5 L 504.5,74.5 L 488.5,74.5 L 488.5,90.5 L 504.5,90.5 L 504.5,74.5 L 520.5,74.5 L 520.5,90.5 L 536.5,90.5 L 536.5,106.5 L 520.5,106.5 L 520.5,122.5 L 536.5,122.5 L 536.5,106.5 L 552.5,106.5 L 552.5,122.5 L 568.5,122.5 L 568.5,106.5 L 584.5,106.5 L 584.5,90.5 L 568.5,90.5 L 568.5,74.5 L 584.5,74.5 L 584.5,90.5 L 600.5,90.5 L 600.5,106.5 L 584.5,106.5 L 584.5,122.5 L 600.5,122.5 L 600.5,138.5 L 584.5,138.5 L 584.5,122.5 L 568.5,122.5 L 568.5,138.5 L 552.5,138.5 L 552.5,154.5 L 568.5,154.5 L 568.5,170.5 L 552.5,170.5 L 552.5,154.5 L 536.5,154.5 L 536.5,138.5 L 552.5,138.5 L 552.5,122.5 L 536.5,122.5 L 536.5,138.5 L 520.5,138.5 L 520.5,122.5 L 504.5,122.5 L 504.5,138.5 L 488.5,138.5 L 488.5,154.5 L 504.5,154.5 L 504.5,138.5 L 520.5,138.5 L 520.5,154.5 L 536.5,154.5 L 536.5,170.5 L 520.5,170.5 L 520.5,186.5 L 536.5,186.5 L 536.5,202.5 L 520.5,202.5 L 520.5,186.5 L 504.5,186.5 L 504.5,202.5 L 488.5,202.5 L 488.5,218.5 L 504.5,218.5 L 504.5,202.5 L 520.5,202.5 L 520.5,218.5 L 536.5,218.5 L 536.5,234.5 L 520.5,234.5 L 520.5,250.5 L 536.5,250.5 L 536.5,234.5 L 552.5,234.5 L 552.5,250.5 L 568.5,250.5 L 568.5,234.5 L 584.5,234.5 L 584.5,218.5 L 568.5,218.5 L 568.5,202.5 L 584.5,202.5 L 584.5,218.5 L 600.5,218.5 L 600.5,234.5 L 584.5,234.5 L 584.5,250.5 L 600.5,250.5 L 600.5,266.5 L 584.5,266.5 L 584.5,250.5 L 568.5,250.5 L 568.5,266.5 L 552.5,266.5 L 552.5,282.5 L 568.5,282.5 L 568.5,298.5 L 552.5,298.5 L 552.5,282.5 L 536.5,282.5 L 536.5,266.5 L 552.5,266.5 L 552.5,250.5 L 536.5,250.5 L 536.5,266.5 L 520.5,266.5 L 520.5,250.5 L 504.5,250.5 L 504.5,266.5 L 488.5,266.5 L 488.5,282.5 L 504.5,282.5 L 504.5,298.5 L 488.5,298.5 L 488.5,282.5 L 472.5,282.5 L 472.5,266.5 L 488.5,266.5 L 488.5,250.5 L 472.5,250.5 L 472.5,234.5 L 488.5,234.5 L 488.5,250.5 L 504.5,250.5 L 504.5,234.5 L 520.5,234.5 L 520.5,218.5 L 504.5,218.5 L 504.5,234.5 L 488.5,234.5 L 488.5,218.5 L 472.5,218.5 L 472.5,202.5 L 488.5,202.5 L 488.5,186.5 L 472.5,186.5 L 472.5,202.5 L 456.5,202.5 L 456.5,186.5 L 440.5,186.5 L 440.5,202.5 L 424.5,202.5 L 424.5,218.5 L 440.5,218.5 L 440.5,202.5 L 456.5,202.5 L 456.5,218.5 L 472.5,218.5 L 472.5,234.5 L 456.5,234.5 L 456.5,250.5 L 472.5,250.5 L 472.5,266.5 L 456.5,266.5 L 456.5,250.5 L 440.5,250.5 L 440.5,266.5 L 424.5,266.5 L 424.5,282.5 L 440.5,282.5 L 440.5,298.5 L 424.5,298.5 L 424.5,282.5 L 408.5,282.5 L 408.5,266.5 L 424.5,266.5 L 424.5,250.5 L 408.5,250.5 L 408.5,266.5 L 392.5,266.5 L 392.5,250.5 L 376.5,250.5 L 376.5,266.5 L 360.5,266.5 L 360.5,282.5 L 376.5,282.5 L 376.5,266.5 L 392.5,266.5 L 392.5,282.5 L 408.5,282.5 L 408.5,298.5 L 392.5,298.5 L 392.5,314.5 L 408.5,314.5 L 408.5,330.5 L 392.5,330.5 L 392.5,314.5 L 376.5,314.5 L 376.5,330.5 L 360.5,330.5 L 360.5,346.5 L 376.5,346.5 L 376.5,330.5 L 392.5,330.5 L 392.5,346.5 L 408.5,346.5 L 408.5,362.5 L 392.5,362.5 L 392.5,378.5 L 408.5,378.5 L 408.5,362.5 L 424.5,362.5 L 424.5,378.5 L 440.5,378.5 L 440.5,362.5 L 456.5,362.5 L 456.5,346.5 L 440.5,346.5 L 440.5,362.5 L 424.5,362.5 L 424.5,346.5 L 408.5,346.5 L 408.5,330.5 L 424.5,330.5 L 424.5,314.5 L 408.5,314.5 L 408.5,298.5 L 424.5,298.5 L 424.5,314.5 L 440.5,314.5 L 440.5,298.5 L 456.5,298.5 L 456.5,282.5 L 440.5,282.5 L 440.5,266.5 L 456.5,266.5 L 456.5,282.5 L 472.5,282.5 L 472.5,298.5 L 456.5,298.5 L 456.5,314.5 L 472.5,314.5 L 472.5,298.5 L 488.5,298.5 L 488.5,314.5 L 504.5,314.5 L 504.5,298.5 L 520.5,298.5 L 520.5,282.5 L 504.5,282.5 L 504.5,266.5 L 520.5,266.5 L 520.5,282.5 L 536.5,282.5 L 536.5,298.5 L 520.5,298.5 L 520.5,314.5 L 536.5,314.5 L 536.5,330.5 L 520.5,330.5 L 520.5,314.5 L 504.5,314.5 L 504.5,330.5 L 488.5,330.5 L 488.5,346.5 L 504.5,346.5 L 504.5,330.5 L 520.5,330.5 L 520.5,346.5 L 536.5,346.5 L 536.5,362.5 L 520.5,362.5 L 520.5,378.5 L 536.5,378.5 L 536.5,362.5 L 552.5,362.5 L 552.5,378.5 L 568.5,378.5 L 568.5,362.5 L 584.5,362.5 L 584.5,346.5 L 568.5,346.5 L 568.5,330.5 L 584.5,330.5 L 584.5,346.5 L 600.5,346.5 L 600.5,362.5 L 584.5,362.5 L 584.5,378.5 L 600.5,378.5 L 600.5,394.5 L 584.5,394.5 L 584.5,378.5 L 568.5,378.5 L 568.5,394.5 L 552.5,394.5 L 552.5,410.5 L 568.5,410.5 L 568.5,426.5 L 552.5,426.5 L 552.5,410.5 L 536.5,410.5 L 536.5,394.5 L 552.5,394.5 L 552.5,378.5 L 536.5,378.5 L 536.5,394.5 L 520.5,394.5 L 520.5,378.5 L 504.5,378.5 L 504.5,394.5 L 488.5,394.5 L 488.5,410.5 L 504.5,410.5 L 504.5,394.5 L 520.5,394.5 L 520.5,410.5 L 536.5,410.5 L 536.5,426.5 L 520.5,426.5 L 520.5,442.5 L 536.5,442.5 L 536.5,458.5 L 520.5,458.5 L 520.5,442.5 L 504.5,442.5 L 504.5,458.5 L 488.5,458.5 L 488.5,474.5 L 504.5,474.5 L 504.5,458.5 L 520.5,458.5 L 520.5,474.5 L 536.5,474.5 L 536.5,490.5 L 520.5,490.5 L 520.5,506.5 L 536.5,506.5 L 536.5,490.5 L 552.5,490.5 L 552.5,506.5 L 568.5,506.5 L 568.5,490.5 L 584.5,490.5 L 584.5,474.5 L 568.5,474.5 L 568.5,490.5 L 552.5,490.5 L 552.5,474.5 L 536.5,474.5 L 536.5,458.5 L 552.5,458.5 L 552.5,442.5 L 536.5,442.5 L 536.5,426.5 L 552.5,426.5 L 552.5,442.5 L 568.5,442.5 L 568.5,426.5 L 584.5,426.5 L 584.5,410.5 L 568.5,410.5 L 568.5,394.5 L 584.5,394.5 L 584.5,410.5 L 600.5,410.5 L 600.5,426.5 L 584.5,426.5 L 584.5,442.5 L 600.5,442.5 L 600.5,426.5 L 616.5,426.5 L 616.5,442.5 L 632.5,442.5 L 632.5,426.5 L 648.5,426.5 L 648.5,410.5 L 632.5,410.5 L 632.5,394.5 L 648.5,394.5 L 648.5,410.5 L 664.5,410.5 L 664.5,426.5 L 648.5,426.5 L 648.5,442.5 L 664.5,442.5 L 664.5,458.5 L 648.5,458.5 L 648.5,442.5 L 632.5,442.5 L 632.5,458.5 L 616.5,458.5 L 616.5,474.5 L 632.5,474.5 L 632.5,458.5 L 648.5,458.5 L 648.5,474.5 L 664.5,474.5 L 664.5,490.5 L 648.5,490.5 L 648.5,506.5 L 664.5,506.5 L 664.5,490.5 L 680.5,490.5 L 680.5,506.5 L 696.5,506.5 L 696.5,490.5 L 712.5,490.5 L 712.5,474.5 L 696.5,474.5 L 696.5,490.5 L 680.5,490.5 L 680.5,474.5 L 664.5,474.5 L 664.5,458.5 L 680.5,458.5 L 680.5,442.5 L 664.5,442.5 L 664.5,426.5 L 680.5,426.5 L 680.5,442.5 L 696.5,442.5 L 696.5,426.5 L 712.5,426.5 L 712.5,410.5 L 696.5,410.5 L 696.5,394.5 L 712.5,394.5 L 712.5,410.5 L 728.5,410.5 L 728.5,426.5 L 712.5,426.5 L 712.5,442.5 L 728.5,442.5 L 728.5,426.5 L 744.5,426.5 L 744.5,442.5 L 760.5,442.5 L 760.5,426.5 L 776.5,426.5 L 776.5,410.5 L 760.5,410.5 L 760.5,426.5 L 744.5,426.5 L 744.5,410.5 L 728.5,410.5 L 728.5,394.5 L 744.5,394.5 L 744.5,378.5 L 728.5,378.5 L 728.5,362.5 L 744.5,362.5 L 744.5,378.5 L 760.5,378.5 L 760.5,362.5 L 776.5,362.5 L 776.5,346.5 L 760.5,346.5 L 760.5,362.5 L 744.5,362.5 L 744.5,346.5 L 728.5,346.5 L 728.5,330.5 L 744.5,330.5 L 744.5,314.5 L 728.5,314.5 L 728.5,330.5 L 712.5,330.5 L 712.5,314.5 L 696.5,314.5 L 696.5,330.5 L 680.5,330.5 L 680.5,346.5 L 696.5,346.5"
     style="fill:none;fill-opacity:1;stroke:#0000fa;stroke-width:1px;stroke-linecap:butt;stroke-linejoin:miter;stroke-opacity:1"
     id="path9203" />
</svg>
