<svg xmlns="http://www.w3.org/2000/svg" viewBox="0 0 610 178" width="610" height="178"><rect width="100%" height="100%" fill="#fff"/><path d="M17 81h32v32H17zm160 0h16v48h-16zm16-16h16v16h-16zm0 64h16v16h-16zm16-80h32v16h-32zm0 96h32v16h-32zm32-48h16v16h-16zm16-32h16v16h-16zm0 64h16v16h-16zm16-48h16v48h-16zm16 16h16v16h-16zm48-48h32v48h-32zm32-16h16v16h-16zm0 64h16v16h-16zm32-80h16v32h-16zm0 80h16v32h-16zm160-48h32v32h-32z"/><path stroke="silver" stroke-width="610" stroke-dasharray="2,14" d="M305 0v178"/><path stroke="silver" stroke-width="178" stroke-dasharray="2,14" d="M0 89h610"/></svg>