<?xml version="1.0" encoding="UTF-8" standalone="no"?>
<!-- Created with Inkscape (http://www.inkscape.org/) -->

<svg
   xmlns:dc="http://purl.org/dc/elements/1.1/"
   xmlns:cc="http://creativecommons.org/ns#"
   xmlns:rdf="http://www.w3.org/1999/02/22-rdf-syntax-ns#"
   xmlns:svg="http://www.w3.org/2000/svg"
   xmlns="http://www.w3.org/2000/svg"
   xmlns:sodipodi="http://sodipodi.sourceforge.net/DTD/sodipodi-0.dtd"
   xmlns:inkscape="http://www.inkscape.org/namespaces/inkscape"
   width="1200mm"
   height="1400mm"
   viewBox="0 0 1200 1400"
   version="1.1"
   id="svg8"
   inkscape:version="0.92.4 5da689c313, 2019-01-14"
   sodipodi:docname="drawing.svg">
  <defs
     id="defs2" />
  <sodipodi:namedview
     id="base"
     pagecolor="#ffffff"
     bordercolor="#666666"
     borderopacity="1.0"
     inkscape:pageopacity="0.0"
     inkscape:pageshadow="2"
     inkscape:zoom="0.12374369"
     inkscape:cx="1075.0335"
     inkscape:cy="3249.3241"
     inkscape:document-units="mm"
     inkscape:current-layer="layer1"
     showgrid="false"
     fit-margin-top="0"
     fit-margin-left="0"
     fit-margin-right="0"
     fit-margin-bottom="0"
     inkscape:window-width="1919"
     inkscape:window-height="1027"
     inkscape:window-x="1"
     inkscape:window-y="0"
     inkscape:window-maximized="1" />
  <metadata
     id="metadata5">
    <rdf:RDF>
      <cc:Work
         rdf:about="">
        <dc:format>image/svg+xml</dc:format>
        <dc:type
           rdf:resource="http://purl.org/dc/dcmitype/StillImage" />
        <dc:title></dc:title>
      </cc:Work>
    </rdf:RDF>
  </metadata>
  <g
     inkscape:label="Layer 1"
     inkscape:groupmode="layer"
     id="layer1"
     transform="translate(1535.8827,1041.2116)">
    <g
       id="g826"
       transform="translate(-908.546,-586.51475)">
      <path
         style="fill:#d0d0d0;fill-opacity:1;stroke-width:0.26458332"
         d="m -603.81696,821.44191 v -93.92708 h 9.26042 9.26041 v 42.33333 42.33334 h 38.36459 38.36458 V 632.26484 452.34818 h -38.36458 -38.36459 v 42.33333 42.33333 h -9.26041 -9.26042 v -93.92708 -93.92707 h 9.26042 9.26041 v 42.33333 42.33333 h 85.98959 85.98958 v -42.33333 -42.33333 h 9.26042 9.26041 v 89.95832 89.95833 h 37.04167 37.04167 V 253.91069 -21.255963 h -37.04167 -37.04167 v 89.958329 89.958324 h -9.26041 -9.26042 V 116.32736 73.994032 h -85.98958 -85.98959 v 42.333328 42.33333 h -9.26041 -9.26042 V 64.733616 -29.193463 h 9.26042 9.26041 V 13.139868 55.4732 h 38.36459 38.36458 v -179.91666 -179.91666 h -38.36458 -38.36459 v 42.33334 42.33333 h -9.26041 -9.26042 v -93.92708 -93.92708 h 9.26042 9.26041 v 42.33333 42.33333 h 179.91667 179.91667 v -42.33333 -42.33333 h 9.26041 9.26042 v 93.92708 93.92708 h -9.26042 -9.26041 v -42.33333 -42.33334 h -38.36459 -38.36458 v 85.98958 85.98958 H -27.025293 248.14137 v -85.98958 -85.98958 h -38.36458 -38.36458 v 42.33334 42.33333 h -9.26042 -9.26042 v -93.92708 -93.92708 h 9.26042 9.26042 v 42.33333 42.33333 h 179.91666 179.91667 v -42.33333 -42.33333 h 9.26042 9.26041 v 93.92708 93.92708 h -9.26041 -9.26042 v -42.33333 -42.33334 H 492.88096 454.51637 V -124.44346 55.4732 h 38.36459 38.36458 V 13.139868 -29.193463 h 9.26042 9.26041 v 93.927079 93.927074 h -9.26041 -9.26042 V 116.32736 73.994032 h -85.98958 -85.98959 v 42.333328 42.33333 h -9.26041 -9.26042 V 68.702366 -21.255963 H 303.70387 266.66221 V 253.91069 529.07734 h 37.04166 37.04167 v -89.95833 -89.95832 h 9.26042 9.26041 v 42.33333 42.33333 h 85.98959 85.98958 v -42.33333 -42.33333 h 9.26042 9.26041 v 93.92707 93.92708 h -9.26041 -9.26042 V 494.68151 452.34818 H 492.88096 454.51637 V 632.26484 812.1815 h 38.36459 38.36458 v -42.33334 -42.33333 h 9.26042 9.26041 v 93.92708 93.92708 h -9.26041 -9.26042 V 873.03566 830.70233 H 351.32887 171.41221 v 42.33333 42.33333 h -9.26042 -9.26042 v -93.92708 -93.92708 h 9.26042 9.26042 v 42.33333 42.33334 h 38.36458 38.36458 V 726.19192 640.20234 H -27.025293 -302.19196 v 85.98958 85.98958 h 38.36458 38.36459 v -42.33334 -42.33333 h 9.26041 9.26042 v 93.92708 93.92708 h -9.26042 -9.26041 v -42.33333 -42.33333 h -179.91667 -179.91667 v 42.33333 42.33333 h -9.26041 -9.26042 z m 283.10417,-47.625 v -38.36458 h -84.66667 -84.66667 v 38.36458 38.36459 h 84.66667 84.66667 z m 756.70833,0 v -38.36458 h -84.66667 -84.66666 v 38.36458 38.36459 h 84.66666 84.66667 z m -849.3125,-141.55207 v -84.66666 h -38.36458 -38.36459 v 84.66666 84.66666 h 38.36459 38.36458 z m 92.60417,46.30208 v -38.36458 h -37.04167 -37.04167 v 38.36458 38.36458 h 37.04167 37.04167 z m 661.45833,0 v -38.36458 h -37.04167 -37.04166 v 38.36458 38.36458 h 37.04166 37.04167 z m 95.25,-46.30208 v -84.66666 h -38.36458 -38.36459 v 84.66666 84.66666 h 38.36459 38.36458 z m -756.70833,-47.625 v -37.04166 h -37.04167 -37.04167 v 37.04166 37.04167 h 37.04167 37.04167 z m 190.5,0 v -37.04166 h -85.98959 -85.98958 v 37.04166 37.04167 h 85.98958 85.98959 z m 187.854163,-47.625 v -84.66666 h -84.666666 -84.666667 v 84.66666 84.66667 h 84.666667 84.666666 z m 190.499997,47.625 V 547.59818 H 162.15179 76.162207 v 37.04166 37.04167 h 85.989583 85.98958 z m 92.60417,0 v -37.04166 h -37.04167 -37.04166 v 37.04166 37.04167 h 37.04166 37.04167 z m -754.0625,-93.92708 v -38.36458 h -38.36458 -38.36459 v 38.36458 38.36458 h 38.36459 38.36458 z m 187.85417,-47.625 v -85.98958 h -38.36459 -38.36458 v 85.98958 85.98958 h 38.36458 38.36459 z m 95.25,47.625 v -38.36458 h -38.36459 -38.36458 v 38.36458 38.36458 h 38.36458 38.36459 z m 283.10416,0 V 452.34818 H 114.52679 76.162207 v 38.36458 38.36458 h 38.364583 38.36458 z m 95.25,-47.625 v -85.98958 h -38.36458 -38.36458 v 85.98958 85.98958 h 38.36458 38.36458 z m 187.85417,47.625 v -38.36458 h -38.36458 -38.36459 v 38.36458 38.36458 h 38.36459 38.36458 z m -566.20833,-95.24999 v -38.36459 h -38.36459 -38.36458 v 38.36459 38.36458 h 38.36458 38.36459 z m 187.854163,0 v -38.36459 h -84.666666 -84.666667 v 38.36459 38.36458 h 84.666667 84.666666 z m 95.249997,0 V 357.09818 H 114.52679 76.162207 v 38.36459 38.36458 h 38.364583 38.36458 z M -130.21279,253.91069 v -84.66666 h -85.98959 -85.98958 v 84.66666 84.66666 h 85.98958 85.98959 z m 92.604163,0 v -84.66666 h -37.041666 -37.041667 v 84.66666 84.66666 h 37.041667 37.041666 z m 95.25,0 V 169.24403 H 20.599707 -16.44196 v 84.66666 84.66666 h 37.041667 37.041666 z m 190.499997,0 V 169.24403 H 162.15179 76.162207 v 84.66666 84.66666 h 85.989583 85.98958 z M -225.46279,64.733616 v -85.989579 h -38.36459 -38.36458 v 84.666662 84.666661 h 1.32292 1.32291 v 1.32292 1.32292 h 37.04167 37.04167 z m 95.25,47.624994 V 73.994032 h -38.36459 -38.36458 v 38.364578 38.36459 h 38.36458 38.36459 z m 187.854163,0 V 73.994032 h -84.666666 -84.666667 v 38.364578 38.36459 h 84.666667 84.666666 z m 95.249997,0 V 73.994032 H 114.52679 76.162207 v 38.364578 38.36459 h 38.364583 38.36458 z m 95.25,-47.624994 V -21.255963 H 209.77679 171.41221 V 64.733616 150.7232 h 38.36458 38.36458 z M -413.31696,17.108618 v -38.364581 h -38.36458 -38.36459 V 17.108618 55.4732 h 38.36459 38.36458 z m 283.10417,0 v -38.364581 h -38.36459 -38.36458 V 17.108618 55.4732 h 38.36458 38.36459 z M 57.641373,-29.193463 V -113.86013 H -27.025293 -111.69196 V -29.193463 55.4732 h 84.666667 84.666666 z M 152.89137,17.108618 V -21.255963 H 114.52679 76.162207 V 17.108618 55.4732 h 38.364583 38.36458 z m 283.10417,0 V -21.255963 H 397.63096 359.26637 V 17.108618 55.4732 h 38.36459 38.36458 z m -849.3125,-141.552078 v -84.66666 h -38.36458 -38.36459 v 84.66666 84.666664 h 38.36459 38.36458 z m 92.60417,47.624999 v -37.041669 h -37.04167 -37.04167 v 37.041669 37.041665 h 37.04167 37.04167 z m 190.5,0 v -37.041669 h -85.98959 -85.98958 v 37.041669 37.041665 h 85.98958 85.98959 z m 378.35416,0 V -113.86013 H 162.15179 76.162207 v 37.041669 37.041665 h 85.989583 85.98958 z m 92.60417,0 v -37.041669 h -37.04167 -37.04166 v 37.041669 37.041665 h 37.04166 37.04167 z m 95.25,-47.624999 v -84.66666 h -38.36458 -38.36459 v 84.66666 84.666664 h 38.36459 38.36458 z m -756.70833,-46.30208 v -38.36458 h -37.04167 -37.04167 v 38.36458 38.36458 h 37.04167 37.04167 z m 661.45833,0 v -38.36458 h -37.04167 -37.04166 v 38.36458 38.36458 h 37.04166 37.04167 z m -661.45833,-95.24999 v -38.36459 h -84.66667 -84.66667 v 38.36459 38.36458 h 84.66667 84.66667 z m 756.70833,0 v -38.36459 h -84.66667 -84.66666 v 38.36459 38.36458 h 84.66666 84.66667 z"
         id="path842"
         inkscape:connector-curvature="0" />
      <path
         style="fill:#b9b9b9;fill-opacity:1;stroke-width:0.26458332"
         d="m -603.81696,821.44191 v -93.92708 h 9.26042 9.26041 v 42.33333 42.33334 h 38.36459 38.36458 V 632.26484 452.34818 h -38.36458 -38.36459 v 42.33333 42.33333 h -9.26041 -9.26042 v -93.92708 -93.92707 h 9.26042 9.26041 v 42.33333 42.33333 h 85.98959 85.98958 v -42.33333 -42.33333 h 9.26042 9.26041 v 89.95832 89.95833 h 37.04167 37.04167 V 253.91069 -21.255963 h -37.04167 -37.04167 v 89.958329 89.958324 h -9.26041 -9.26042 V 116.32736 73.994032 h -85.98958 -85.98959 v 42.333328 42.33333 h -9.26041 -9.26042 V 64.733616 -29.193463 h 9.26042 9.26041 V 13.139868 55.4732 h 38.36459 38.36458 v -179.91666 -179.91666 h -38.36458 -38.36459 v 42.33334 42.33333 h -9.26041 -9.26042 v -93.92708 -93.92708 h 9.26042 9.26041 v 42.33333 42.33333 h 179.91667 179.91667 v -42.33333 -42.33333 h 9.26041 9.26042 v 93.92708 93.92708 h -9.26042 -9.26041 v -42.33333 -42.33334 h -38.36459 -38.36458 v 85.98958 85.98958 H -27.025293 248.14137 v -85.98958 -85.98958 h -38.36458 -38.36458 v 42.33334 42.33333 h -9.26042 -9.26042 v -93.92708 -93.92708 h 9.26042 9.26042 v 42.33333 42.33333 h 179.91666 179.91667 v -42.33333 -42.33333 h 9.26042 9.26041 v 93.92708 93.92708 h -9.26041 -9.26042 v -42.33333 -42.33334 H 492.88096 454.51637 V -124.44346 55.4732 h 38.36459 38.36458 V 13.139868 -29.193463 h 9.26042 9.26041 v 93.927079 93.927074 h -9.26041 -9.26042 V 116.32736 73.994032 h -85.98958 -85.98959 v 42.333328 42.33333 h -9.26041 -9.26042 V 68.702366 -21.255963 H 303.70387 266.66221 V 253.91069 529.07734 h 37.04166 37.04167 v -89.95833 -89.95832 h 9.26042 9.26041 v 42.33333 42.33333 h 85.98959 85.98958 v -42.33333 -42.33333 h 9.26042 9.26041 v 93.92707 93.92708 h -9.26041 -9.26042 V 494.68151 452.34818 H 492.88096 454.51637 V 632.26484 812.1815 h 38.36459 38.36458 v -42.33334 -42.33333 h 9.26042 9.26041 v 93.92708 93.92708 h -9.26041 -9.26042 V 873.03566 830.70233 H 351.32887 171.41221 v 42.33333 42.33333 h -9.26042 -9.26042 v -93.92708 -93.92708 h 9.26042 9.26042 v 42.33333 42.33334 h 38.36458 38.36458 V 726.19192 640.20234 H -27.025293 -302.19196 v 85.98958 85.98958 h 38.36458 38.36459 v -42.33334 -42.33333 h 9.26041 9.26042 v 93.92708 93.92708 h -9.26042 -9.26041 v -42.33333 -42.33333 h -179.91667 -179.91667 v 42.33333 42.33333 h -9.26041 -9.26042 z m 283.10417,-47.625 v -38.36458 h -84.66667 -84.66667 v 38.36458 38.36459 h 84.66667 84.66667 z m 756.70833,0 v -38.36458 h -84.66667 -84.66666 v 38.36458 38.36459 h 84.66666 84.66667 z m -849.3125,-141.55207 v -84.66666 h -38.36458 -38.36459 v 84.66666 84.66666 h 38.36459 38.36458 z m 92.60417,46.30208 v -38.36458 h -37.04167 -37.04167 v 38.36458 38.36458 h 37.04167 37.04167 z m 661.45833,0 v -38.36458 h -37.04167 -37.04166 v 38.36458 38.36458 h 37.04166 37.04167 z m 95.25,-46.30208 v -84.66666 h -38.36458 -38.36459 v 84.66666 84.66666 h 38.36459 38.36458 z m -756.70833,-47.625 v -37.04166 h -37.04167 -37.04167 v 37.04166 37.04167 h 37.04167 37.04167 z m 190.5,0 v -37.04166 h -85.98959 -85.98958 v 37.04166 37.04167 h 85.98958 85.98959 z m 187.854163,-47.625 v -84.66666 h -84.666666 -84.666667 v 84.66666 84.66667 h 84.666667 84.666666 z m 190.499997,47.625 V 547.59818 H 162.15179 76.162207 v 37.04166 37.04167 h 85.989583 85.98958 z m 92.60417,0 v -37.04166 h -37.04167 -37.04166 v 37.04166 37.04167 h 37.04166 37.04167 z m -754.0625,-93.92708 v -38.36458 h -38.36458 -38.36459 v 38.36458 38.36458 h 38.36459 38.36458 z m 187.85417,-47.625 v -85.98958 h -38.36459 -38.36458 v 85.98958 85.98958 h 38.36458 38.36459 z m 95.25,47.625 v -38.36458 h -38.36459 -38.36458 v 38.36458 38.36458 h 38.36458 38.36459 z m 283.10416,0 V 452.34818 H 114.52679 76.162207 v 38.36458 38.36458 h 38.364583 38.36458 z m 95.25,-47.625 v -85.98958 h -38.36458 -38.36458 v 85.98958 85.98958 h 38.36458 38.36458 z m 187.85417,47.625 v -38.36458 h -38.36458 -38.36459 v 38.36458 38.36458 h 38.36459 38.36458 z m -566.20833,-95.24999 v -38.36459 h -38.36459 -38.36458 v 38.36459 38.36458 h 38.36458 38.36459 z m 187.854163,0 v -38.36459 h -84.666666 -84.666667 v 38.36459 38.36458 h 84.666667 84.666666 z m 95.249997,0 V 357.09818 H 114.52679 76.162207 v 38.36459 38.36458 h 38.364583 38.36458 z M -130.21279,253.91069 v -84.66666 h -85.98959 -85.98958 v 84.66666 84.66666 h 85.98958 85.98959 z m 92.604163,0 v -84.66666 h -37.041666 -37.041667 v 84.66666 84.66666 h 37.041667 37.041666 z m 95.25,0 V 169.24403 H 20.599707 -16.44196 v 84.66666 84.66666 h 37.041667 37.041666 z m 190.499997,0 V 169.24403 H 162.15179 76.162207 v 84.66666 84.66666 h 85.989583 85.98958 z M -225.46279,64.733616 v -85.989579 h -38.36459 -38.36458 v 84.666662 84.666661 h 1.32292 1.32291 v 1.32292 1.32292 h 37.04167 37.04167 z m 95.25,47.624994 V 73.994032 h -38.36459 -38.36458 v 38.364578 38.36459 h 38.36458 38.36459 z m 187.854163,0 V 73.994032 h -84.666666 -84.666667 v 38.364578 38.36459 h 84.666667 84.666666 z m 95.249997,0 V 73.994032 H 114.52679 76.162207 v 38.364578 38.36459 h 38.364583 38.36458 z m 95.25,-47.624994 V -21.255963 H 209.77679 171.41221 V 64.733616 150.7232 h 38.36458 38.36458 z M -413.31696,17.108618 v -38.364581 h -38.36458 -38.36459 V 17.108618 55.4732 h 38.36459 38.36458 z m 283.10417,0 v -38.364581 h -38.36459 -38.36458 V 17.108618 55.4732 h 38.36458 38.36459 z M 57.641373,-29.193463 V -113.86013 H -27.025293 -111.69196 V -29.193463 55.4732 h 84.666667 84.666666 z M 152.89137,17.108618 V -21.255963 H 114.52679 76.162207 V 17.108618 55.4732 h 38.364583 38.36458 z m 283.10417,0 V -21.255963 H 397.63096 359.26637 V 17.108618 55.4732 h 38.36459 38.36458 z m -849.3125,-141.552078 v -84.66666 h -38.36458 -38.36459 v 84.66666 84.666664 h 38.36459 38.36458 z m 92.60417,47.624999 v -37.041669 h -37.04167 -37.04167 v 37.041669 37.041665 h 37.04167 37.04167 z m 190.5,0 v -37.041669 h -85.98959 -85.98958 v 37.041669 37.041665 h 85.98958 85.98959 z m 378.35416,0 V -113.86013 H 162.15179 76.162207 v 37.041669 37.041665 h 85.989583 85.98958 z m 92.60417,0 v -37.041669 h -37.04167 -37.04166 v 37.041669 37.041665 h 37.04166 37.04167 z m 95.25,-47.624999 v -84.66666 h -38.36458 -38.36459 v 84.66666 84.666664 h 38.36459 38.36458 z m -756.70833,-46.30208 v -38.36458 h -37.04167 -37.04167 v 38.36458 38.36458 h 37.04167 37.04167 z m 661.45833,0 v -38.36458 h -37.04167 -37.04166 v 38.36458 38.36458 h 37.04166 37.04167 z m -661.45833,-95.24999 v -38.36459 h -84.66667 -84.66667 v 38.36459 38.36458 h 84.66667 84.66667 z m 756.70833,0 v -38.36459 h -84.66667 -84.66666 v 38.36459 38.36458 h 84.66666 84.66667 z"
         id="path840"
         inkscape:connector-curvature="0" />
      <path
         style="fill:#a3a3a3;fill-opacity:1;stroke-width:0.26458332"
         d="m -603.81696,821.44191 v -93.92708 h 9.26042 9.26041 v 42.33333 42.33334 h 38.36459 38.36458 V 632.26484 452.34818 h -38.36458 -38.36459 v 42.33333 42.33333 h -9.26041 -9.26042 v -93.92708 -93.92707 h 9.26042 9.26041 v 42.33333 42.33333 h 85.98959 85.98958 v -42.33333 -42.33333 h 9.26042 9.26041 v 89.95832 89.95833 h 37.04167 37.04167 V 253.91069 -21.255963 h -37.04167 -37.04167 v 89.958329 89.958324 h -9.26041 -9.26042 V 116.32736 73.994032 h -85.98958 -85.98959 v 42.333328 42.33333 h -9.26041 -9.26042 V 64.733616 -29.193463 h 9.26042 9.26041 V 13.139868 55.4732 h 38.36459 38.36458 v -179.91666 -179.91666 h -38.36458 -38.36459 v 42.33334 42.33333 h -9.26041 -9.26042 v -93.92708 -93.92708 h 9.26042 9.26041 v 42.33333 42.33333 h 179.91667 179.91667 v -42.33333 -42.33333 h 9.26041 9.26042 v 93.92708 93.92708 h -9.26042 -9.26041 v -42.33333 -42.33334 h -38.36459 -38.36458 v 85.98958 85.98958 H -27.025293 248.14137 v -85.98958 -85.98958 h -38.36458 -38.36458 v 42.33334 42.33333 h -9.26042 -9.26042 v -93.92708 -93.92708 h 9.26042 9.26042 v 42.33333 42.33333 h 179.91666 179.91667 v -42.33333 -42.33333 h 9.26042 9.26041 v 93.92708 93.92708 h -9.26041 -9.26042 v -42.33333 -42.33334 H 492.88096 454.51637 V -124.44346 55.4732 h 38.36459 38.36458 V 13.139868 -29.193463 h 9.26042 9.26041 v 93.927079 93.927074 h -9.26041 -9.26042 V 116.32736 73.994032 h -85.98958 -85.98959 v 42.333328 42.33333 h -9.26041 -9.26042 V 68.702366 -21.255963 H 303.70387 266.66221 V 253.91069 529.07734 h 37.04166 37.04167 v -89.95833 -89.95832 h 9.26042 9.26041 v 42.33333 42.33333 h 85.98959 85.98958 v -42.33333 -42.33333 h 9.26042 9.26041 v 93.92707 93.92708 h -9.26041 -9.26042 V 494.68151 452.34818 H 492.88096 454.51637 V 632.26484 812.1815 h 38.36459 38.36458 v -42.33334 -42.33333 h 9.26042 9.26041 v 93.92708 93.92708 h -9.26041 -9.26042 V 873.03566 830.70233 H 351.32887 171.41221 v 42.33333 42.33333 h -9.26042 -9.26042 v -93.92708 -93.92708 h 9.26042 9.26042 v 42.33333 42.33334 h 38.36458 38.36458 V 726.19192 640.20234 H -27.025293 -302.19196 v 85.98958 85.98958 h 38.36458 38.36459 v -42.33334 -42.33333 h 9.26041 9.26042 v 93.92708 93.92708 h -9.26042 -9.26041 v -42.33333 -42.33333 h -179.91667 -179.91667 v 42.33333 42.33333 h -9.26041 -9.26042 z m 283.10417,-47.625 v -38.36458 h -84.66667 -84.66667 v 38.36458 38.36459 h 84.66667 84.66667 z m 756.70833,0 v -38.36458 h -84.66667 -84.66666 v 38.36458 38.36459 h 84.66666 84.66667 z m -849.3125,-141.55207 v -84.66666 h -38.36458 -38.36459 v 84.66666 84.66666 h 38.36459 38.36458 z m 92.60417,46.30208 v -38.36458 h -37.04167 -37.04167 v 38.36458 38.36458 h 37.04167 37.04167 z m 661.45833,0 v -38.36458 h -37.04167 -37.04166 v 38.36458 38.36458 h 37.04166 37.04167 z m 95.25,-46.30208 v -84.66666 h -38.36458 -38.36459 v 84.66666 84.66666 h 38.36459 38.36458 z m -756.70833,-47.625 v -37.04166 h -37.04167 -37.04167 v 37.04166 37.04167 h 37.04167 37.04167 z m 190.5,0 v -37.04166 h -85.98959 -85.98958 v 37.04166 37.04167 h 85.98958 85.98959 z m 187.854163,-47.625 v -84.66666 h -84.666666 -84.666667 v 84.66666 84.66667 h 84.666667 84.666666 z m 190.499997,47.625 V 547.59818 H 162.15179 76.162207 v 37.04166 37.04167 h 85.989583 85.98958 z m 92.60417,0 v -37.04166 h -37.04167 -37.04166 v 37.04166 37.04167 h 37.04166 37.04167 z m -754.0625,-93.92708 v -38.36458 h -38.36458 -38.36459 v 38.36458 38.36458 h 38.36459 38.36458 z m 187.85417,-47.625 v -85.98958 h -38.36459 -38.36458 v 85.98958 85.98958 h 38.36458 38.36459 z m 95.25,47.625 v -38.36458 h -38.36459 -38.36458 v 38.36458 38.36458 h 38.36458 38.36459 z m 283.10416,0 V 452.34818 H 114.52679 76.162207 v 38.36458 38.36458 h 38.364583 38.36458 z m 95.25,-47.625 v -85.98958 h -38.36458 -38.36458 v 85.98958 85.98958 h 38.36458 38.36458 z m 187.85417,47.625 v -38.36458 h -38.36458 -38.36459 v 38.36458 38.36458 h 38.36459 38.36458 z m -566.20833,-95.24999 v -38.36459 h -38.36459 -38.36458 v 38.36459 38.36458 h 38.36458 38.36459 z m 187.854163,0 v -38.36459 h -84.666666 -84.666667 v 38.36459 38.36458 h 84.666667 84.666666 z m 95.249997,0 V 357.09818 H 114.52679 76.162207 v 38.36459 38.36458 h 38.364583 38.36458 z M -130.21279,253.91069 v -84.66666 h -85.98959 -85.98958 v 84.66666 84.66666 h 85.98958 85.98959 z m 92.604163,0 v -84.66666 h -37.041666 -37.041667 v 84.66666 84.66666 h 37.041667 37.041666 z m 95.25,0 V 169.24403 H 20.599707 -16.44196 v 84.66666 84.66666 h 37.041667 37.041666 z m 190.499997,0 V 169.24403 H 162.15179 76.162207 v 84.66666 84.66666 h 85.989583 85.98958 z M -225.46279,64.733616 v -85.989579 h -38.36459 -38.36458 v 84.666662 84.666661 h 1.32292 1.32291 v 1.32292 1.32292 h 37.04167 37.04167 z m 95.25,47.624994 V 73.994032 h -38.36459 -38.36458 v 38.364578 38.36459 h 38.36458 38.36459 z m 187.854163,0 V 73.994032 h -84.666666 -84.666667 v 38.364578 38.36459 h 84.666667 84.666666 z m 95.249997,0 V 73.994032 H 114.52679 76.162207 v 38.364578 38.36459 h 38.364583 38.36458 z m 95.25,-47.624994 V -21.255963 H 209.77679 171.41221 V 64.733616 150.7232 h 38.36458 38.36458 z M -413.31696,17.108618 v -38.364581 h -38.36458 -38.36459 V 17.108618 55.4732 h 38.36459 38.36458 z m 283.10417,0 v -38.364581 h -38.36459 -38.36458 V 17.108618 55.4732 h 38.36458 38.36459 z M 57.641373,-29.193463 V -113.86013 H -27.025293 -111.69196 V -29.193463 55.4732 h 84.666667 84.666666 z M 152.89137,17.108618 V -21.255963 H 114.52679 76.162207 V 17.108618 55.4732 h 38.364583 38.36458 z m 283.10417,0 V -21.255963 H 397.63096 359.26637 V 17.108618 55.4732 h 38.36459 38.36458 z m -849.3125,-141.552078 v -84.66666 h -38.36458 -38.36459 v 84.66666 84.666664 h 38.36459 38.36458 z m 92.60417,47.624999 v -37.041669 h -37.04167 -37.04167 v 37.041669 37.041665 h 37.04167 37.04167 z m 190.5,0 v -37.041669 h -85.98959 -85.98958 v 37.041669 37.041665 h 85.98958 85.98959 z m 378.35416,0 V -113.86013 H 162.15179 76.162207 v 37.041669 37.041665 h 85.989583 85.98958 z m 92.60417,0 v -37.041669 h -37.04167 -37.04166 v 37.041669 37.041665 h 37.04166 37.04167 z m 95.25,-47.624999 v -84.66666 h -38.36458 -38.36459 v 84.66666 84.666664 h 38.36459 38.36458 z m -756.70833,-46.30208 v -38.36458 h -37.04167 -37.04167 v 38.36458 38.36458 h 37.04167 37.04167 z m 661.45833,0 v -38.36458 h -37.04167 -37.04166 v 38.36458 38.36458 h 37.04166 37.04167 z m -661.45833,-95.24999 v -38.36459 h -84.66667 -84.66667 v 38.36459 38.36458 h 84.66667 84.66667 z m 756.70833,0 v -38.36459 h -84.66667 -84.66666 v 38.36459 38.36458 h 84.66666 84.66667 z"
         id="path838"
         inkscape:connector-curvature="0" />
      <path
         style="fill:#8c8c8c;fill-opacity:1;stroke-width:0.26458332"
         d="m -603.81696,821.44191 v -93.92708 h 9.26042 9.26041 v 42.33333 42.33334 h 38.36459 38.36458 V 632.26484 452.34818 h -38.36458 -38.36459 v 42.33333 42.33333 h -9.26041 -9.26042 v -93.92708 -93.92707 h 9.26042 9.26041 v 42.33333 42.33333 h 85.98959 85.98958 v -42.33333 -42.33333 h 9.26042 9.26041 v 89.95832 89.95833 h 37.04167 37.04167 V 253.91069 -21.255963 h -37.04167 -37.04167 v 89.958329 89.958324 h -9.26041 -9.26042 V 116.32736 73.994032 h -85.98958 -85.98959 v 42.333328 42.33333 h -9.26041 -9.26042 V 64.733616 -29.193463 h 9.26042 9.26041 V 13.139868 55.4732 h 38.36459 38.36458 v -179.91666 -179.91666 h -38.36458 -38.36459 v 42.33334 42.33333 h -9.26041 -9.26042 v -93.92708 -93.92708 h 9.26042 9.26041 v 42.33333 42.33333 h 179.91667 179.91667 v -42.33333 -42.33333 h 9.26041 9.26042 v 93.92708 93.92708 h -9.26042 -9.26041 v -42.33333 -42.33334 h -38.36459 -38.36458 v 85.98958 85.98958 H -27.025293 248.14137 v -85.98958 -85.98958 h -38.36458 -38.36458 v 42.33334 42.33333 h -9.26042 -9.26042 v -93.92708 -93.92708 h 9.26042 9.26042 v 42.33333 42.33333 h 179.91666 179.91667 v -42.33333 -42.33333 h 9.26042 9.26041 v 93.92708 93.92708 h -9.26041 -9.26042 v -42.33333 -42.33334 H 492.88096 454.51637 V -124.44346 55.4732 h 38.36459 38.36458 V 13.139868 -29.193463 h 9.26042 9.26041 v 93.927079 93.927074 h -9.26041 -9.26042 V 116.32736 73.994032 h -85.98958 -85.98959 v 42.333328 42.33333 h -9.26041 -9.26042 V 68.702366 -21.255963 H 303.70387 266.66221 V 253.91069 529.07734 h 37.04166 37.04167 v -89.95833 -89.95832 h 9.26042 9.26041 v 42.33333 42.33333 h 85.98959 85.98958 v -42.33333 -42.33333 h 9.26042 9.26041 v 93.92707 93.92708 h -9.26041 -9.26042 V 494.68151 452.34818 H 492.88096 454.51637 V 632.26484 812.1815 h 38.36459 38.36458 v -42.33334 -42.33333 h 9.26042 9.26041 v 93.92708 93.92708 h -9.26041 -9.26042 V 873.03566 830.70233 H 351.32887 171.41221 v 42.33333 42.33333 h -9.26042 -9.26042 v -93.92708 -93.92708 h 9.26042 9.26042 v 42.33333 42.33334 h 38.36458 38.36458 V 726.19192 640.20234 H -27.025293 -302.19196 v 85.98958 85.98958 h 38.36458 38.36459 v -42.33334 -42.33333 h 9.26041 9.26042 v 93.92708 93.92708 h -9.26042 -9.26041 v -42.33333 -42.33333 h -179.91667 -179.91667 v 42.33333 42.33333 h -9.26041 -9.26042 z m 283.10417,-47.625 v -38.36458 h -84.66667 -84.66667 v 38.36458 38.36459 h 84.66667 84.66667 z m 756.70833,0 v -38.36458 h -84.66667 -84.66666 v 38.36458 38.36459 h 84.66666 84.66667 z m -849.3125,-141.55207 v -84.66666 h -38.36458 -38.36459 v 84.66666 84.66666 h 38.36459 38.36458 z m 92.60417,46.30208 v -38.36458 h -37.04167 -37.04167 v 38.36458 38.36458 h 37.04167 37.04167 z m 661.45833,0 v -38.36458 h -37.04167 -37.04166 v 38.36458 38.36458 h 37.04166 37.04167 z m 95.25,-46.30208 v -84.66666 h -38.36458 -38.36459 v 84.66666 84.66666 h 38.36459 38.36458 z m -756.70833,-47.625 v -37.04166 h -37.04167 -37.04167 v 37.04166 37.04167 h 37.04167 37.04167 z m 190.5,0 v -37.04166 h -85.98959 -85.98958 v 37.04166 37.04167 h 85.98958 85.98959 z m 187.854163,-47.625 v -84.66666 h -84.666666 -84.666667 v 84.66666 84.66667 h 84.666667 84.666666 z m 190.499997,47.625 V 547.59818 H 162.15179 76.162207 v 37.04166 37.04167 h 85.989583 85.98958 z m 92.60417,0 v -37.04166 h -37.04167 -37.04166 v 37.04166 37.04167 h 37.04166 37.04167 z m -754.0625,-93.92708 v -38.36458 h -38.36458 -38.36459 v 38.36458 38.36458 h 38.36459 38.36458 z m 187.85417,-47.625 v -85.98958 h -38.36459 -38.36458 v 85.98958 85.98958 h 38.36458 38.36459 z m 95.25,47.625 v -38.36458 h -38.36459 -38.36458 v 38.36458 38.36458 h 38.36458 38.36459 z m 283.10416,0 V 452.34818 H 114.52679 76.162207 v 38.36458 38.36458 h 38.364583 38.36458 z m 95.25,-47.625 v -85.98958 h -38.36458 -38.36458 v 85.98958 85.98958 h 38.36458 38.36458 z m 187.85417,47.625 v -38.36458 h -38.36458 -38.36459 v 38.36458 38.36458 h 38.36459 38.36458 z m -566.20833,-95.24999 v -38.36459 h -38.36459 -38.36458 v 38.36459 38.36458 h 38.36458 38.36459 z m 187.854163,0 v -38.36459 h -84.666666 -84.666667 v 38.36459 38.36458 h 84.666667 84.666666 z m 95.249997,0 V 357.09818 H 114.52679 76.162207 v 38.36459 38.36458 h 38.364583 38.36458 z M -130.21279,253.91069 v -84.66666 h -85.98959 -85.98958 v 84.66666 84.66666 h 85.98958 85.98959 z m 92.604163,0 v -84.66666 h -37.041666 -37.041667 v 84.66666 84.66666 h 37.041667 37.041666 z m 95.25,0 V 169.24403 H 20.599707 -16.44196 v 84.66666 84.66666 h 37.041667 37.041666 z m 190.499997,0 V 169.24403 H 162.15179 76.162207 v 84.66666 84.66666 h 85.989583 85.98958 z M -225.46279,64.733616 v -85.989579 h -38.36459 -38.36458 v 84.666662 84.666661 h 1.32292 1.32291 v 1.32292 1.32292 h 37.04167 37.04167 z m 95.25,47.624994 V 73.994032 h -38.36459 -38.36458 v 38.364578 38.36459 h 38.36458 38.36459 z m 187.854163,0 V 73.994032 h -84.666666 -84.666667 v 38.364578 38.36459 h 84.666667 84.666666 z m 95.249997,0 V 73.994032 H 114.52679 76.162207 v 38.364578 38.36459 h 38.364583 38.36458 z m 95.25,-47.624994 V -21.255963 H 209.77679 171.41221 V 64.733616 150.7232 h 38.36458 38.36458 z M -413.31696,17.108618 v -38.364581 h -38.36458 -38.36459 V 17.108618 55.4732 h 38.36459 38.36458 z m 283.10417,0 v -38.364581 h -38.36459 -38.36458 V 17.108618 55.4732 h 38.36458 38.36459 z M 57.641373,-29.193463 V -113.86013 H -27.025293 -111.69196 V -29.193463 55.4732 h 84.666667 84.666666 z M 152.89137,17.108618 V -21.255963 H 114.52679 76.162207 V 17.108618 55.4732 h 38.364583 38.36458 z m 283.10417,0 V -21.255963 H 397.63096 359.26637 V 17.108618 55.4732 h 38.36459 38.36458 z m -849.3125,-141.552078 v -84.66666 h -38.36458 -38.36459 v 84.66666 84.666664 h 38.36459 38.36458 z m 92.60417,47.624999 v -37.041669 h -37.04167 -37.04167 v 37.041669 37.041665 h 37.04167 37.04167 z m 190.5,0 v -37.041669 h -85.98959 -85.98958 v 37.041669 37.041665 h 85.98958 85.98959 z m 378.35416,0 V -113.86013 H 162.15179 76.162207 v 37.041669 37.041665 h 85.989583 85.98958 z m 92.60417,0 v -37.041669 h -37.04167 -37.04166 v 37.041669 37.041665 h 37.04166 37.04167 z m 95.25,-47.624999 v -84.66666 h -38.36458 -38.36459 v 84.66666 84.666664 h 38.36459 38.36458 z m -756.70833,-46.30208 v -38.36458 h -37.04167 -37.04167 v 38.36458 38.36458 h 37.04167 37.04167 z m 661.45833,0 v -38.36458 h -37.04167 -37.04166 v 38.36458 38.36458 h 37.04166 37.04167 z m -661.45833,-95.24999 v -38.36459 h -84.66667 -84.66667 v 38.36459 38.36458 h 84.66667 84.66667 z m 756.70833,0 v -38.36459 h -84.66667 -84.66666 v 38.36459 38.36458 h 84.66666 84.66667 z"
         id="path836"
         inkscape:connector-curvature="0" />
      <path
         style="fill:#767676;fill-opacity:1;stroke-width:0.26458332"
         d="m -603.81696,821.44191 v -93.92708 h 9.26042 9.26041 v 42.33333 42.33334 h 38.36459 38.36458 V 632.26484 452.34818 h -38.36458 -38.36459 v 42.33333 42.33333 h -9.26041 -9.26042 v -93.92708 -93.92707 h 9.26042 9.26041 v 42.33333 42.33333 h 85.98959 85.98958 v -42.33333 -42.33333 h 9.26042 9.26041 v 89.95832 89.95833 h 37.04167 37.04167 V 253.91069 -21.255963 h -37.04167 -37.04167 v 89.958329 89.958324 h -9.26041 -9.26042 V 116.32736 73.994032 h -85.98958 -85.98959 v 42.333328 42.33333 h -9.26041 -9.26042 V 64.733616 -29.193463 h 9.26042 9.26041 V 13.139868 55.4732 h 38.36459 38.36458 v -179.91666 -179.91666 h -38.36458 -38.36459 v 42.33334 42.33333 h -9.26041 -9.26042 v -93.92708 -93.92708 h 9.26042 9.26041 v 42.33333 42.33333 h 179.91667 179.91667 v -42.33333 -42.33333 h 9.26041 9.26042 v 93.92708 93.92708 h -9.26042 -9.26041 v -42.33333 -42.33334 h -38.36459 -38.36458 v 85.98958 85.98958 H -27.025293 248.14137 v -85.98958 -85.98958 h -38.36458 -38.36458 v 42.33334 42.33333 h -9.26042 -9.26042 v -93.92708 -93.92708 h 9.26042 9.26042 v 42.33333 42.33333 h 179.91666 179.91667 v -42.33333 -42.33333 h 9.26042 9.26041 v 93.92708 93.92708 h -9.26041 -9.26042 v -42.33333 -42.33334 H 492.88096 454.51637 V -124.44346 55.4732 h 38.36459 38.36458 V 13.139868 -29.193463 h 9.26042 9.26041 v 93.927079 93.927074 h -9.26041 -9.26042 V 116.32736 73.994032 h -85.98958 -85.98959 v 42.333328 42.33333 h -9.26041 -9.26042 V 68.702366 -21.255963 H 303.70387 266.66221 V 253.91069 529.07734 h 37.04166 37.04167 v -89.95833 -89.95832 h 9.26042 9.26041 v 42.33333 42.33333 h 85.98959 85.98958 v -42.33333 -42.33333 h 9.26042 9.26041 v 93.92707 93.92708 h -9.26041 -9.26042 V 494.68151 452.34818 H 492.88096 454.51637 V 632.26484 812.1815 h 38.36459 38.36458 v -42.33334 -42.33333 h 9.26042 9.26041 v 93.92708 93.92708 h -9.26041 -9.26042 V 873.03566 830.70233 H 351.32887 171.41221 v 42.33333 42.33333 h -9.26042 -9.26042 v -93.92708 -93.92708 h 9.26042 9.26042 v 42.33333 42.33334 h 38.36458 38.36458 V 726.19192 640.20234 H -27.025293 -302.19196 v 85.98958 85.98958 h 38.36458 38.36459 v -42.33334 -42.33333 h 9.26041 9.26042 v 93.92708 93.92708 h -9.26042 -9.26041 v -42.33333 -42.33333 h -179.91667 -179.91667 v 42.33333 42.33333 h -9.26041 -9.26042 z m 283.10417,-47.625 v -38.36458 h -84.66667 -84.66667 v 38.36458 38.36459 h 84.66667 84.66667 z m 756.70833,0 v -38.36458 h -84.66667 -84.66666 v 38.36458 38.36459 h 84.66666 84.66667 z m -849.3125,-141.55207 v -84.66666 h -38.36458 -38.36459 v 84.66666 84.66666 h 38.36459 38.36458 z m 92.60417,46.30208 v -38.36458 h -37.04167 -37.04167 v 38.36458 38.36458 h 37.04167 37.04167 z m 661.45833,0 v -38.36458 h -37.04167 -37.04166 v 38.36458 38.36458 h 37.04166 37.04167 z m 95.25,-46.30208 v -84.66666 h -38.36458 -38.36459 v 84.66666 84.66666 h 38.36459 38.36458 z m -756.70833,-47.625 v -37.04166 h -37.04167 -37.04167 v 37.04166 37.04167 h 37.04167 37.04167 z m 190.5,0 v -37.04166 h -85.98959 -85.98958 v 37.04166 37.04167 h 85.98958 85.98959 z m 187.854163,-47.625 v -84.66666 h -84.666666 -84.666667 v 84.66666 84.66667 h 84.666667 84.666666 z m 190.499997,47.625 V 547.59818 H 162.15179 76.162207 v 37.04166 37.04167 h 85.989583 85.98958 z m 92.60417,0 v -37.04166 h -37.04167 -37.04166 v 37.04166 37.04167 h 37.04166 37.04167 z m -754.0625,-93.92708 v -38.36458 h -38.36458 -38.36459 v 38.36458 38.36458 h 38.36459 38.36458 z m 187.85417,-47.625 v -85.98958 h -38.36459 -38.36458 v 85.98958 85.98958 h 38.36458 38.36459 z m 95.25,47.625 v -38.36458 h -38.36459 -38.36458 v 38.36458 38.36458 h 38.36458 38.36459 z m 283.10416,0 V 452.34818 H 114.52679 76.162207 v 38.36458 38.36458 h 38.364583 38.36458 z m 95.25,-47.625 v -85.98958 h -38.36458 -38.36458 v 85.98958 85.98958 h 38.36458 38.36458 z m 187.85417,47.625 v -38.36458 h -38.36458 -38.36459 v 38.36458 38.36458 h 38.36459 38.36458 z m -566.20833,-95.24999 v -38.36459 h -38.36459 -38.36458 v 38.36459 38.36458 h 38.36458 38.36459 z m 187.854163,0 v -38.36459 h -84.666666 -84.666667 v 38.36459 38.36458 h 84.666667 84.666666 z m 95.249997,0 V 357.09818 H 114.52679 76.162207 v 38.36459 38.36458 h 38.364583 38.36458 z M -130.21279,253.91069 v -84.66666 h -85.98959 -85.98958 v 84.66666 84.66666 h 85.98958 85.98959 z m 92.604163,0 v -84.66666 h -37.041666 -37.041667 v 84.66666 84.66666 h 37.041667 37.041666 z m 95.25,0 V 169.24403 H 20.599707 -16.44196 v 84.66666 84.66666 h 37.041667 37.041666 z m 190.499997,0 V 169.24403 H 162.15179 76.162207 v 84.66666 84.66666 h 85.989583 85.98958 z M -225.46279,64.733616 v -85.989579 h -38.36459 -38.36458 v 84.666662 84.666661 h 1.32292 1.32291 v 1.32292 1.32292 h 37.04167 37.04167 z m 95.25,47.624994 V 73.994032 h -38.36459 -38.36458 v 38.364578 38.36459 h 38.36458 38.36459 z m 187.854163,0 V 73.994032 h -84.666666 -84.666667 v 38.364578 38.36459 h 84.666667 84.666666 z m 95.249997,0 V 73.994032 H 114.52679 76.162207 v 38.364578 38.36459 h 38.364583 38.36458 z m 95.25,-47.624994 V -21.255963 H 209.77679 171.41221 V 64.733616 150.7232 h 38.36458 38.36458 z M -413.31696,17.108618 v -38.364581 h -38.36458 -38.36459 V 17.108618 55.4732 h 38.36459 38.36458 z m 283.10417,0 v -38.364581 h -38.36459 -38.36458 V 17.108618 55.4732 h 38.36458 38.36459 z M 57.641373,-29.193463 V -113.86013 H -27.025293 -111.69196 V -29.193463 55.4732 h 84.666667 84.666666 z M 152.89137,17.108618 V -21.255963 H 114.52679 76.162207 V 17.108618 55.4732 h 38.364583 38.36458 z m 283.10417,0 V -21.255963 H 397.63096 359.26637 V 17.108618 55.4732 h 38.36459 38.36458 z m -849.3125,-141.552078 v -84.66666 h -38.36458 -38.36459 v 84.66666 84.666664 h 38.36459 38.36458 z m 92.60417,47.624999 v -37.041669 h -37.04167 -37.04167 v 37.041669 37.041665 h 37.04167 37.04167 z m 190.5,0 v -37.041669 h -85.98959 -85.98958 v 37.041669 37.041665 h 85.98958 85.98959 z m 378.35416,0 V -113.86013 H 162.15179 76.162207 v 37.041669 37.041665 h 85.989583 85.98958 z m 92.60417,0 v -37.041669 h -37.04167 -37.04166 v 37.041669 37.041665 h 37.04166 37.04167 z m 95.25,-47.624999 v -84.66666 h -38.36458 -38.36459 v 84.66666 84.666664 h 38.36459 38.36458 z m -756.70833,-46.30208 v -38.36458 h -37.04167 -37.04167 v 38.36458 38.36458 h 37.04167 37.04167 z m 661.45833,0 v -38.36458 h -37.04167 -37.04166 v 38.36458 38.36458 h 37.04166 37.04167 z m -661.45833,-95.24999 v -38.36459 h -84.66667 -84.66667 v 38.36459 38.36458 h 84.66667 84.66667 z m 756.70833,0 v -38.36459 h -84.66667 -84.66666 v 38.36459 38.36458 h 84.66666 84.66667 z"
         id="path834"
         inkscape:connector-curvature="0" />
      <path
         style="fill:#606060;fill-opacity:1;stroke-width:0.26458332"
         d="m -603.81696,821.44191 v -93.92708 h 9.26042 9.26041 v 42.33333 42.33334 h 38.36459 38.36458 V 632.26484 452.34818 h -38.36458 -38.36459 v 42.33333 42.33333 h -9.26041 -9.26042 v -93.92708 -93.92707 h 9.26042 9.26041 v 42.33333 42.33333 h 85.98959 85.98958 v -42.33333 -42.33333 h 9.26042 9.26041 v 89.95832 89.95833 h 37.04167 37.04167 V 253.91069 -21.255963 h -37.04167 -37.04167 v 89.958329 89.958324 h -9.26041 -9.26042 V 116.32736 73.994032 h -85.98958 -85.98959 v 42.333328 42.33333 h -9.26041 -9.26042 V 64.733616 -29.193463 h 9.26042 9.26041 V 13.139868 55.4732 h 38.36459 38.36458 v -179.91666 -179.91666 h -38.36458 -38.36459 v 42.33334 42.33333 h -9.26041 -9.26042 v -93.92708 -93.92708 h 9.26042 9.26041 v 42.33333 42.33333 h 179.91667 179.91667 v -42.33333 -42.33333 h 9.26041 9.26042 v 93.92708 93.92708 h -9.26042 -9.26041 v -42.33333 -42.33334 h -38.36459 -38.36458 v 85.98958 85.98958 H -27.025293 248.14137 v -85.98958 -85.98958 h -38.36458 -38.36458 v 42.33334 42.33333 h -9.26042 -9.26042 v -93.92708 -93.92708 h 9.26042 9.26042 v 42.33333 42.33333 h 179.91666 179.91667 v -42.33333 -42.33333 h 9.26042 9.26041 v 93.92708 93.92708 h -9.26041 -9.26042 v -42.33333 -42.33334 H 492.88096 454.51637 V -124.44346 55.4732 h 38.36459 38.36458 V 13.139868 -29.193463 h 9.26042 9.26041 v 93.927079 93.927074 h -9.26041 -9.26042 V 116.32736 73.994032 h -85.98958 -85.98959 v 42.333328 42.33333 h -9.26041 -9.26042 V 68.702366 -21.255963 H 303.70387 266.66221 V 253.91069 529.07734 h 37.04166 37.04167 v -89.95833 -89.95832 h 9.26042 9.26041 v 42.33333 42.33333 h 85.98959 85.98958 v -42.33333 -42.33333 h 9.26042 9.26041 v 93.92707 93.92708 h -9.26041 -9.26042 V 494.68151 452.34818 H 492.88096 454.51637 V 632.26484 812.1815 h 38.36459 38.36458 v -42.33334 -42.33333 h 9.26042 9.26041 v 93.92708 93.92708 h -9.26041 -9.26042 V 873.03566 830.70233 H 351.32887 171.41221 v 42.33333 42.33333 h -9.26042 -9.26042 v -93.92708 -93.92708 h 9.26042 9.26042 v 42.33333 42.33334 h 38.36458 38.36458 V 726.19192 640.20234 H -27.025293 -302.19196 v 85.98958 85.98958 h 38.36458 38.36459 v -42.33334 -42.33333 h 9.26041 9.26042 v 93.92708 93.92708 h -9.26042 -9.26041 v -42.33333 -42.33333 h -179.91667 -179.91667 v 42.33333 42.33333 h -9.26041 -9.26042 z m 283.10417,-47.625 v -38.36458 h -84.66667 -84.66667 v 38.36458 38.36459 h 84.66667 84.66667 z m 756.70833,0 v -38.36458 h -84.66667 -84.66666 v 38.36458 38.36459 h 84.66666 84.66667 z m -849.3125,-141.55207 v -84.66666 h -38.36458 -38.36459 v 84.66666 84.66666 h 38.36459 38.36458 z m 92.60417,46.30208 v -38.36458 h -37.04167 -37.04167 v 38.36458 38.36458 h 37.04167 37.04167 z m 661.45833,0 v -38.36458 h -37.04167 -37.04166 v 38.36458 38.36458 h 37.04166 37.04167 z m 95.25,-46.30208 v -84.66666 h -38.36458 -38.36459 v 84.66666 84.66666 h 38.36459 38.36458 z m -756.70833,-47.625 v -37.04166 h -37.04167 -37.04167 v 37.04166 37.04167 h 37.04167 37.04167 z m 190.5,0 v -37.04166 h -85.98959 -85.98958 v 37.04166 37.04167 h 85.98958 85.98959 z m 187.854163,-47.625 v -84.66666 h -84.666666 -84.666667 v 84.66666 84.66667 h 84.666667 84.666666 z m 190.499997,47.625 V 547.59818 H 162.15179 76.162207 v 37.04166 37.04167 h 85.989583 85.98958 z m 92.60417,0 v -37.04166 h -37.04167 -37.04166 v 37.04166 37.04167 h 37.04166 37.04167 z m -754.0625,-93.92708 v -38.36458 h -38.36458 -38.36459 v 38.36458 38.36458 h 38.36459 38.36458 z m 187.85417,-47.625 v -85.98958 h -38.36459 -38.36458 v 85.98958 85.98958 h 38.36458 38.36459 z m 95.25,47.625 v -38.36458 h -38.36459 -38.36458 v 38.36458 38.36458 h 38.36458 38.36459 z m 283.10416,0 V 452.34818 H 114.52679 76.162207 v 38.36458 38.36458 h 38.364583 38.36458 z m 95.25,-47.625 v -85.98958 h -38.36458 -38.36458 v 85.98958 85.98958 h 38.36458 38.36458 z m 187.85417,47.625 v -38.36458 h -38.36458 -38.36459 v 38.36458 38.36458 h 38.36459 38.36458 z m -566.20833,-95.24999 v -38.36459 h -38.36459 -38.36458 v 38.36459 38.36458 h 38.36458 38.36459 z m 187.854163,0 v -38.36459 h -84.666666 -84.666667 v 38.36459 38.36458 h 84.666667 84.666666 z m 95.249997,0 V 357.09818 H 114.52679 76.162207 v 38.36459 38.36458 h 38.364583 38.36458 z M -130.21279,253.91069 v -84.66666 h -85.98959 -85.98958 v 84.66666 84.66666 h 85.98958 85.98959 z m 92.604163,0 v -84.66666 h -37.041666 -37.041667 v 84.66666 84.66666 h 37.041667 37.041666 z m 95.25,0 V 169.24403 H 20.599707 -16.44196 v 84.66666 84.66666 h 37.041667 37.041666 z m 190.499997,0 V 169.24403 H 162.15179 76.162207 v 84.66666 84.66666 h 85.989583 85.98958 z M -225.46279,64.733616 v -85.989579 h -38.36459 -38.36458 v 84.666662 84.666661 h 1.32292 1.32291 v 1.32292 1.32292 h 37.04167 37.04167 z m 95.25,47.624994 V 73.994032 h -38.36459 -38.36458 v 38.364578 38.36459 h 38.36458 38.36459 z m 187.854163,0 V 73.994032 h -84.666666 -84.666667 v 38.364578 38.36459 h 84.666667 84.666666 z m 95.249997,0 V 73.994032 H 114.52679 76.162207 v 38.364578 38.36459 h 38.364583 38.36458 z m 95.25,-47.624994 V -21.255963 H 209.77679 171.41221 V 64.733616 150.7232 h 38.36458 38.36458 z M -413.31696,17.108618 v -38.364581 h -38.36458 -38.36459 V 17.108618 55.4732 h 38.36459 38.36458 z m 283.10417,0 v -38.364581 h -38.36459 -38.36458 V 17.108618 55.4732 h 38.36458 38.36459 z M 57.641373,-29.193463 V -113.86013 H -27.025293 -111.69196 V -29.193463 55.4732 h 84.666667 84.666666 z M 152.89137,17.108618 V -21.255963 H 114.52679 76.162207 V 17.108618 55.4732 h 38.364583 38.36458 z m 283.10417,0 V -21.255963 H 397.63096 359.26637 V 17.108618 55.4732 h 38.36459 38.36458 z m -849.3125,-141.552078 v -84.66666 h -38.36458 -38.36459 v 84.66666 84.666664 h 38.36459 38.36458 z m 92.60417,47.624999 v -37.041669 h -37.04167 -37.04167 v 37.041669 37.041665 h 37.04167 37.04167 z m 190.5,0 v -37.041669 h -85.98959 -85.98958 v 37.041669 37.041665 h 85.98958 85.98959 z m 378.35416,0 V -113.86013 H 162.15179 76.162207 v 37.041669 37.041665 h 85.989583 85.98958 z m 92.60417,0 v -37.041669 h -37.04167 -37.04166 v 37.041669 37.041665 h 37.04166 37.04167 z m 95.25,-47.624999 v -84.66666 h -38.36458 -38.36459 v 84.66666 84.666664 h 38.36459 38.36458 z m -756.70833,-46.30208 v -38.36458 h -37.04167 -37.04167 v 38.36458 38.36458 h 37.04167 37.04167 z m 661.45833,0 v -38.36458 h -37.04167 -37.04166 v 38.36458 38.36458 h 37.04166 37.04167 z m -661.45833,-95.24999 v -38.36459 h -84.66667 -84.66667 v 38.36459 38.36458 h 84.66667 84.66667 z m 756.70833,0 v -38.36459 h -84.66667 -84.66666 v 38.36459 38.36458 h 84.66666 84.66667 z"
         id="path832"
         inkscape:connector-curvature="0" />
      <path
         style="fill:#494949;fill-opacity:1;stroke-width:0.26458332"
         d="m -603.81696,821.44191 v -93.92708 h 9.26042 9.26041 v 42.33333 42.33334 h 38.36459 38.36458 V 632.26484 452.34818 h -38.36458 -38.36459 v 42.33333 42.33333 h -9.26041 -9.26042 v -93.92708 -93.92707 h 9.26042 9.26041 v 42.33333 42.33333 h 85.98959 85.98958 v -42.33333 -42.33333 h 9.26042 9.26041 v 89.95832 89.95833 h 37.04167 37.04167 V 253.91069 -21.255963 h -37.04167 -37.04167 v 89.958329 89.958324 h -9.26041 -9.26042 V 116.32736 73.994032 h -85.98958 -85.98959 v 42.333328 42.33333 h -9.26041 -9.26042 V 64.733616 -29.193463 h 9.26042 9.26041 V 13.139868 55.4732 h 38.36459 38.36458 v -179.91666 -179.91666 h -38.36458 -38.36459 v 42.33334 42.33333 h -9.26041 -9.26042 v -93.92708 -93.92708 h 9.26042 9.26041 v 42.33333 42.33333 h 179.91667 179.91667 v -42.33333 -42.33333 h 9.26041 9.26042 v 93.92708 93.92708 h -9.26042 -9.26041 v -42.33333 -42.33334 h -38.36459 -38.36458 v 85.98958 85.98958 H -27.025293 248.14137 v -85.98958 -85.98958 h -38.36458 -38.36458 v 42.33334 42.33333 h -9.26042 -9.26042 v -93.92708 -93.92708 h 9.26042 9.26042 v 42.33333 42.33333 h 179.91666 179.91667 v -42.33333 -42.33333 h 9.26042 9.26041 v 93.92708 93.92708 h -9.26041 -9.26042 v -42.33333 -42.33334 H 492.88096 454.51637 V -124.44346 55.4732 h 38.36459 38.36458 V 13.139868 -29.193463 h 9.26042 9.26041 v 93.927079 93.927074 h -9.26041 -9.26042 V 116.32736 73.994032 h -85.98958 -85.98959 v 42.333328 42.33333 h -9.26041 -9.26042 V 68.702366 -21.255963 H 303.70387 266.66221 V 253.91069 529.07734 h 37.04166 37.04167 v -89.95833 -89.95832 h 9.26042 9.26041 v 42.33333 42.33333 h 85.98959 85.98958 v -42.33333 -42.33333 h 9.26042 9.26041 v 93.92707 93.92708 h -9.26041 -9.26042 V 494.68151 452.34818 H 492.88096 454.51637 V 632.26484 812.1815 h 38.36459 38.36458 v -42.33334 -42.33333 h 9.26042 9.26041 v 93.92708 93.92708 h -9.26041 -9.26042 V 873.03566 830.70233 H 351.32887 171.41221 v 42.33333 42.33333 h -9.26042 -9.26042 v -93.92708 -93.92708 h 9.26042 9.26042 v 42.33333 42.33334 h 38.36458 38.36458 V 726.19192 640.20234 H -27.025293 -302.19196 v 85.98958 85.98958 h 38.36458 38.36459 v -42.33334 -42.33333 h 9.26041 9.26042 v 93.92708 93.92708 h -9.26042 -9.26041 v -42.33333 -42.33333 h -179.91667 -179.91667 v 42.33333 42.33333 h -9.26041 -9.26042 z m 283.10417,-47.625 v -38.36458 h -84.66667 -84.66667 v 38.36458 38.36459 h 84.66667 84.66667 z m 756.70833,0 v -38.36458 h -84.66667 -84.66666 v 38.36458 38.36459 h 84.66666 84.66667 z m -849.3125,-141.55207 v -84.66666 h -38.36458 -38.36459 v 84.66666 84.66666 h 38.36459 38.36458 z m 92.60417,46.30208 v -38.36458 h -37.04167 -37.04167 v 38.36458 38.36458 h 37.04167 37.04167 z m 661.45833,0 v -38.36458 h -37.04167 -37.04166 v 38.36458 38.36458 h 37.04166 37.04167 z m 95.25,-46.30208 v -84.66666 h -38.36458 -38.36459 v 84.66666 84.66666 h 38.36459 38.36458 z m -756.70833,-47.625 v -37.04166 h -37.04167 -37.04167 v 37.04166 37.04167 h 37.04167 37.04167 z m 190.5,0 v -37.04166 h -85.98959 -85.98958 v 37.04166 37.04167 h 85.98958 85.98959 z m 187.854163,-47.625 v -84.66666 h -84.666666 -84.666667 v 84.66666 84.66667 h 84.666667 84.666666 z m 190.499997,47.625 V 547.59818 H 162.15179 76.162207 v 37.04166 37.04167 h 85.989583 85.98958 z m 92.60417,0 v -37.04166 h -37.04167 -37.04166 v 37.04166 37.04167 h 37.04166 37.04167 z m -754.0625,-93.92708 v -38.36458 h -38.36458 -38.36459 v 38.36458 38.36458 h 38.36459 38.36458 z m 187.85417,-47.625 v -85.98958 h -38.36459 -38.36458 v 85.98958 85.98958 h 38.36458 38.36459 z m 95.25,47.625 v -38.36458 h -38.36459 -38.36458 v 38.36458 38.36458 h 38.36458 38.36459 z m 283.10416,0 V 452.34818 H 114.52679 76.162207 v 38.36458 38.36458 h 38.364583 38.36458 z m 95.25,-47.625 v -85.98958 h -38.36458 -38.36458 v 85.98958 85.98958 h 38.36458 38.36458 z m 187.85417,47.625 v -38.36458 h -38.36458 -38.36459 v 38.36458 38.36458 h 38.36459 38.36458 z m -566.20833,-95.24999 v -38.36459 h -38.36459 -38.36458 v 38.36459 38.36458 h 38.36458 38.36459 z m 187.854163,0 v -38.36459 h -84.666666 -84.666667 v 38.36459 38.36458 h 84.666667 84.666666 z m 95.249997,0 V 357.09818 H 114.52679 76.162207 v 38.36459 38.36458 h 38.364583 38.36458 z M -130.21279,253.91069 v -84.66666 h -85.98959 -85.98958 v 84.66666 84.66666 h 85.98958 85.98959 z m 92.604163,0 v -84.66666 h -37.041666 -37.041667 v 84.66666 84.66666 h 37.041667 37.041666 z m 95.25,0 V 169.24403 H 20.599707 -16.44196 v 84.66666 84.66666 h 37.041667 37.041666 z m 190.499997,0 V 169.24403 H 162.15179 76.162207 v 84.66666 84.66666 h 85.989583 85.98958 z M -225.46279,64.733616 v -85.989579 h -38.36459 -38.36458 v 84.666662 84.666661 h 1.32292 1.32291 v 1.32292 1.32292 h 37.04167 37.04167 z m 95.25,47.624994 V 73.994032 h -38.36459 -38.36458 v 38.364578 38.36459 h 38.36458 38.36459 z m 187.854163,0 V 73.994032 h -84.666666 -84.666667 v 38.364578 38.36459 h 84.666667 84.666666 z m 95.249997,0 V 73.994032 H 114.52679 76.162207 v 38.364578 38.36459 h 38.364583 38.36458 z m 95.25,-47.624994 V -21.255963 H 209.77679 171.41221 V 64.733616 150.7232 h 38.36458 38.36458 z M -413.31696,17.108618 v -38.364581 h -38.36458 -38.36459 V 17.108618 55.4732 h 38.36459 38.36458 z m 283.10417,0 v -38.364581 h -38.36459 -38.36458 V 17.108618 55.4732 h 38.36458 38.36459 z M 57.641373,-29.193463 V -113.86013 H -27.025293 -111.69196 V -29.193463 55.4732 h 84.666667 84.666666 z M 152.89137,17.108618 V -21.255963 H 114.52679 76.162207 V 17.108618 55.4732 h 38.364583 38.36458 z m 283.10417,0 V -21.255963 H 397.63096 359.26637 V 17.108618 55.4732 h 38.36459 38.36458 z m -849.3125,-141.552078 v -84.66666 h -38.36458 -38.36459 v 84.66666 84.666664 h 38.36459 38.36458 z m 92.60417,47.624999 v -37.041669 h -37.04167 -37.04167 v 37.041669 37.041665 h 37.04167 37.04167 z m 190.5,0 v -37.041669 h -85.98959 -85.98958 v 37.041669 37.041665 h 85.98958 85.98959 z m 378.35416,0 V -113.86013 H 162.15179 76.162207 v 37.041669 37.041665 h 85.989583 85.98958 z m 92.60417,0 v -37.041669 h -37.04167 -37.04166 v 37.041669 37.041665 h 37.04166 37.04167 z m 95.25,-47.624999 v -84.66666 h -38.36458 -38.36459 v 84.66666 84.666664 h 38.36459 38.36458 z m -756.70833,-46.30208 v -38.36458 h -37.04167 -37.04167 v 38.36458 38.36458 h 37.04167 37.04167 z m 661.45833,0 v -38.36458 h -37.04167 -37.04166 v 38.36458 38.36458 h 37.04166 37.04167 z m -661.45833,-95.24999 v -38.36459 h -84.66667 -84.66667 v 38.36459 38.36458 h 84.66667 84.66667 z m 756.70833,0 v -38.36459 h -84.66667 -84.66666 v 38.36459 38.36458 h 84.66666 84.66667 z"
         id="path830"
         inkscape:connector-curvature="0" />
      <path
         style="fill:#333333;fill-opacity:1;stroke-width:0.26458332"
         d="m -603.81696,821.44191 v -93.92708 h 9.26042 9.26041 v 42.33333 42.33334 h 38.36459 38.36458 V 632.26484 452.34818 h -38.36458 -38.36459 v 42.33333 42.33333 h -9.26041 -9.26042 v -93.92708 -93.92707 h 9.26042 9.26041 v 42.33333 42.33333 h 85.98959 85.98958 v -42.33333 -42.33333 h 9.26042 9.26041 v 89.95832 89.95833 h 37.04167 37.04167 V 253.91069 -21.255963 h -37.04167 -37.04167 v 89.958329 89.958324 h -9.26041 -9.26042 V 116.32736 73.994032 h -85.98958 -85.98959 v 42.333328 42.33333 h -9.26041 -9.26042 V 64.733616 -29.193463 h 9.26042 9.26041 V 13.139868 55.4732 h 38.36459 38.36458 v -179.91666 -179.91666 h -38.36458 -38.36459 v 42.33334 42.33333 h -9.26041 -9.26042 v -93.92708 -93.92708 h 9.26042 9.26041 v 42.33333 42.33333 h 179.91667 179.91667 v -42.33333 -42.33333 h 9.26041 9.26042 v 93.92708 93.92708 h -9.26042 -9.26041 v -42.33333 -42.33334 h -38.36459 -38.36458 v 85.98958 85.98958 H -27.025293 248.14137 v -85.98958 -85.98958 h -38.36458 -38.36458 v 42.33334 42.33333 h -9.26042 -9.26042 v -93.92708 -93.92708 h 9.26042 9.26042 v 42.33333 42.33333 h 179.91666 179.91667 v -42.33333 -42.33333 h 9.26042 9.26041 v 93.92708 93.92708 h -9.26041 -9.26042 v -42.33333 -42.33334 H 492.88096 454.51637 V -124.44346 55.4732 h 38.36459 38.36458 V 13.139868 -29.193463 h 9.26042 9.26041 v 93.927079 93.927074 h -9.26041 -9.26042 V 116.32736 73.994032 h -85.98958 -85.98959 v 42.333328 42.33333 h -9.26041 -9.26042 V 68.702366 -21.255963 H 303.70387 266.66221 V 253.91069 529.07734 h 37.04166 37.04167 v -89.95833 -89.95832 h 9.26042 9.26041 v 42.33333 42.33333 h 85.98959 85.98958 v -42.33333 -42.33333 h 9.26042 9.26041 v 93.92707 93.92708 h -9.26041 -9.26042 V 494.68151 452.34818 H 492.88096 454.51637 V 632.26484 812.1815 h 38.36459 38.36458 v -42.33334 -42.33333 h 9.26042 9.26041 v 93.92708 93.92708 h -9.26041 -9.26042 V 873.03566 830.70233 H 351.32887 171.41221 v 42.33333 42.33333 h -9.26042 -9.26042 v -93.92708 -93.92708 h 9.26042 9.26042 v 42.33333 42.33334 h 38.36458 38.36458 V 726.19192 640.20234 H -27.025293 -302.19196 v 85.98958 85.98958 h 38.36458 38.36459 v -42.33334 -42.33333 h 9.26041 9.26042 v 93.92708 93.92708 h -9.26042 -9.26041 v -42.33333 -42.33333 h -179.91667 -179.91667 v 42.33333 42.33333 h -9.26041 -9.26042 z m 283.10417,-47.625 v -38.36458 h -84.66667 -84.66667 v 38.36458 38.36459 h 84.66667 84.66667 z m 756.70833,0 v -38.36458 h -84.66667 -84.66666 v 38.36458 38.36459 h 84.66666 84.66667 z m -849.3125,-141.55207 v -84.66666 h -38.36458 -38.36459 v 84.66666 84.66666 h 38.36459 38.36458 z m 92.60417,46.30208 v -38.36458 h -37.04167 -37.04167 v 38.36458 38.36458 h 37.04167 37.04167 z m 661.45833,0 v -38.36458 h -37.04167 -37.04166 v 38.36458 38.36458 h 37.04166 37.04167 z m 95.25,-46.30208 v -84.66666 h -38.36458 -38.36459 v 84.66666 84.66666 h 38.36459 38.36458 z m -756.70833,-47.625 v -37.04166 h -37.04167 -37.04167 v 37.04166 37.04167 h 37.04167 37.04167 z m 190.5,0 v -37.04166 h -85.98959 -85.98958 v 37.04166 37.04167 h 85.98958 85.98959 z m 187.854163,-47.625 v -84.66666 h -84.666666 -84.666667 v 84.66666 84.66667 h 84.666667 84.666666 z m 190.499997,47.625 V 547.59818 H 162.15179 76.162207 v 37.04166 37.04167 h 85.989583 85.98958 z m 92.60417,0 v -37.04166 h -37.04167 -37.04166 v 37.04166 37.04167 h 37.04166 37.04167 z m -754.0625,-93.92708 v -38.36458 h -38.36458 -38.36459 v 38.36458 38.36458 h 38.36459 38.36458 z m 187.85417,-47.625 v -85.98958 h -38.36459 -38.36458 v 85.98958 85.98958 h 38.36458 38.36459 z m 95.25,47.625 v -38.36458 h -38.36459 -38.36458 v 38.36458 38.36458 h 38.36458 38.36459 z m 283.10416,0 V 452.34818 H 114.52679 76.162207 v 38.36458 38.36458 h 38.364583 38.36458 z m 95.25,-47.625 v -85.98958 h -38.36458 -38.36458 v 85.98958 85.98958 h 38.36458 38.36458 z m 187.85417,47.625 v -38.36458 h -38.36458 -38.36459 v 38.36458 38.36458 h 38.36459 38.36458 z m -566.20833,-95.24999 v -38.36459 h -38.36459 -38.36458 v 38.36459 38.36458 h 38.36458 38.36459 z m 187.854163,0 v -38.36459 h -84.666666 -84.666667 v 38.36459 38.36458 h 84.666667 84.666666 z m 95.249997,0 V 357.09818 H 114.52679 76.162207 v 38.36459 38.36458 h 38.364583 38.36458 z M -130.21279,253.91069 v -84.66666 h -85.98959 -85.98958 v 84.66666 84.66666 h 85.98958 85.98959 z m 92.604163,0 v -84.66666 h -37.041666 -37.041667 v 84.66666 84.66666 h 37.041667 37.041666 z m 95.25,0 V 169.24403 H 20.599707 -16.44196 v 84.66666 84.66666 h 37.041667 37.041666 z m 190.499997,0 V 169.24403 H 162.15179 76.162207 v 84.66666 84.66666 h 85.989583 85.98958 z M -225.46279,64.733616 v -85.989579 h -38.36459 -38.36458 v 84.666662 84.666661 h 1.32292 1.32291 v 1.32292 1.32292 h 37.04167 37.04167 z m 95.25,47.624994 V 73.994032 h -38.36459 -38.36458 v 38.364578 38.36459 h 38.36458 38.36459 z m 187.854163,0 V 73.994032 h -84.666666 -84.666667 v 38.364578 38.36459 h 84.666667 84.666666 z m 95.249997,0 V 73.994032 H 114.52679 76.162207 v 38.364578 38.36459 h 38.364583 38.36458 z m 95.25,-47.624994 V -21.255963 H 209.77679 171.41221 V 64.733616 150.7232 h 38.36458 38.36458 z M -413.31696,17.108618 v -38.364581 h -38.36458 -38.36459 V 17.108618 55.4732 h 38.36459 38.36458 z m 283.10417,0 v -38.364581 h -38.36459 -38.36458 V 17.108618 55.4732 h 38.36458 38.36459 z M 57.641373,-29.193463 V -113.86013 H -27.025293 -111.69196 V -29.193463 55.4732 h 84.666667 84.666666 z M 152.89137,17.108618 V -21.255963 H 114.52679 76.162207 V 17.108618 55.4732 h 38.364583 38.36458 z m 283.10417,0 V -21.255963 H 397.63096 359.26637 V 17.108618 55.4732 h 38.36459 38.36458 z m -849.3125,-141.552078 v -84.66666 h -38.36458 -38.36459 v 84.66666 84.666664 h 38.36459 38.36458 z m 92.60417,47.624999 v -37.041669 h -37.04167 -37.04167 v 37.041669 37.041665 h 37.04167 37.04167 z m 190.5,0 v -37.041669 h -85.98959 -85.98958 v 37.041669 37.041665 h 85.98958 85.98959 z m 378.35416,0 V -113.86013 H 162.15179 76.162207 v 37.041669 37.041665 h 85.989583 85.98958 z m 92.60417,0 v -37.041669 h -37.04167 -37.04166 v 37.041669 37.041665 h 37.04166 37.04167 z m 95.25,-47.624999 v -84.66666 h -38.36458 -38.36459 v 84.66666 84.666664 h 38.36459 38.36458 z m -756.70833,-46.30208 v -38.36458 h -37.04167 -37.04167 v 38.36458 38.36458 h 37.04167 37.04167 z m 661.45833,0 v -38.36458 h -37.04167 -37.04166 v 38.36458 38.36458 h 37.04166 37.04167 z m -661.45833,-95.24999 v -38.36459 h -84.66667 -84.66667 v 38.36459 38.36458 h 84.66667 84.66667 z m 756.70833,0 v -38.36459 h -84.66667 -84.66666 v 38.36459 38.36458 h 84.66666 84.66667 z"
         id="path828"
         inkscape:connector-curvature="0" />
    </g>
  </g>
</svg>
